STARTFONT 2.1
COMMENT
COMMENT Converted from OpenType font "5zÌŒ5.ttf" by "otf2bdf 3.0".
COMMENT
FONT -FreeType-5×5-Medium-R-Normal--17-120-100-100-P-83-ISO10646-1
SIZE 12 100 100
FONTBOUNDINGBOX 26 20 -1 -4
STARTPROPERTIES 19
FOUNDRY "FreeType"
FAMILY_NAME "5×5"
WEIGHT_NAME "Medium"
SLANT "R"
SETWIDTH_NAME "Normal"
ADD_STYLE_NAME ""
PIXEL_SIZE 17
POINT_SIZE 120
RESOLUTION_X 100
RESOLUTION_Y 100
SPACING "P"
AVERAGE_WIDTH 83
CHARSET_REGISTRY "ISO10646"
CHARSET_ENCODING "1"
FONT_ASCENT 15
FONT_DESCENT 3
COPYRIGHT "5×5 © Trollax Kinora. 2006. All Rights Reserved"
_OTF_FONTFILE "5zÌŒ5.ttf"
_OTF_PSNAME "5×5"
ENDPROPERTIES
CHARS 656
STARTCHAR 0020
ENCODING 32
SWIDTH 180 0
DWIDTH 3 0
BBX 0 0 0 0
BITMAP
ENDCHAR
STARTCHAR 0021
ENCODING 33
SWIDTH 180 0
DWIDTH 3 0
BBX 2 8 0 0
BITMAP
C0
C0
C0
C0
C0
00
C0
C0
ENDCHAR
STARTCHAR 0022
ENCODING 34
SWIDTH 420 0
DWIDTH 7 0
BBX 5 3 0 6
BITMAP
D8
D8
D8
ENDCHAR
STARTCHAR 0023
ENCODING 35
SWIDTH 600 0
DWIDTH 10 0
BBX 8 8 0 0
BITMAP
32
FF
FF
32
32
FF
FF
32
ENDCHAR
STARTCHAR 0024
ENCODING 36
SWIDTH 600 0
DWIDTH 10 0
BBX 8 11 0 -1
BITMAP
18
18
FF
FF
D8
FF
FF
19
FF
FF
18
ENDCHAR
STARTCHAR 0025
ENCODING 37
SWIDTH 600 0
DWIDTH 10 0
BBX 9 8 0 0
BITMAP
C180
C780
0600
0800
0800
3000
C180
C180
ENDCHAR
STARTCHAR 0026
ENCODING 38
SWIDTH 600 0
DWIDTH 10 0
BBX 9 8 0 0
BITMAP
3800
F800
C000
3980
3980
C600
3980
3980
ENDCHAR
STARTCHAR 0027
ENCODING 39
SWIDTH 180 0
DWIDTH 3 0
BBX 2 3 0 6
BITMAP
C0
C0
C0
ENDCHAR
STARTCHAR 0028
ENCODING 40
SWIDTH 300 0
DWIDTH 5 0
BBX 4 8 0 0
BITMAP
30
30
C0
C0
C0
C0
30
30
ENDCHAR
STARTCHAR 0029
ENCODING 41
SWIDTH 300 0
DWIDTH 5 0
BBX 4 8 0 0
BITMAP
C0
C0
30
30
30
30
C0
C0
ENDCHAR
STARTCHAR 002A
ENCODING 42
SWIDTH 420 0
DWIDTH 7 0
BBX 5 5 0 6
BITMAP
30
30
F8
F8
30
ENDCHAR
STARTCHAR 002B
ENCODING 43
SWIDTH 600 0
DWIDTH 10 0
BBX 8 8 0 0
BITMAP
18
18
18
FF
FF
18
18
18
ENDCHAR
STARTCHAR 002C
ENCODING 44
SWIDTH 180 0
DWIDTH 3 0
BBX 2 3 0 -2
BITMAP
C0
C0
C0
ENDCHAR
STARTCHAR 002D
ENCODING 45
SWIDTH 600 0
DWIDTH 10 0
BBX 8 2 0 3
BITMAP
FF
FF
ENDCHAR
STARTCHAR 002E
ENCODING 46
SWIDTH 180 0
DWIDTH 3 0
BBX 2 2 0 0
BITMAP
C0
C0
ENDCHAR
STARTCHAR 002F
ENCODING 47
SWIDTH 420 0
DWIDTH 7 0
BBX 5 8 0 0
BITMAP
08
08
08
30
30
C0
C0
C0
ENDCHAR
STARTCHAR 0030
ENCODING 48
SWIDTH 600 0
DWIDTH 10 0
BBX 9 8 0 0
BITMAP
FF80
FF80
C780
D980
D980
E180
FF80
FF80
ENDCHAR
STARTCHAR 0031
ENCODING 49
SWIDTH 420 0
DWIDTH 7 0
BBX 5 8 0 0
BITMAP
30
F0
F0
30
30
30
F8
F8
ENDCHAR
STARTCHAR 0032
ENCODING 50
SWIDTH 600 0
DWIDTH 10 0
BBX 9 8 0 0
BITMAP
FE00
FF80
0180
3E00
3E00
C000
FF80
FF80
ENDCHAR
STARTCHAR 0033
ENCODING 51
SWIDTH 600 0
DWIDTH 10 0
BBX 9 8 0 0
BITMAP
FF80
FF80
0180
3E00
3E00
0180
FF80
FF80
ENDCHAR
STARTCHAR 0034
ENCODING 52
SWIDTH 600 0
DWIDTH 10 0
BBX 9 8 0 0
BITMAP
C000
C000
C000
D800
D800
FF80
FF80
1800
ENDCHAR
STARTCHAR 0035
ENCODING 53
SWIDTH 600 0
DWIDTH 10 0
BBX 9 8 0 0
BITMAP
FF80
FF80
C000
FE00
FE00
0180
FE00
FE00
ENDCHAR
STARTCHAR 0036
ENCODING 54
SWIDTH 600 0
DWIDTH 10 0
BBX 9 8 0 0
BITMAP
FF80
FF80
C000
FF80
FF80
C180
FF80
FF80
ENDCHAR
STARTCHAR 0037
ENCODING 55
SWIDTH 660 0
DWIDTH 11 0
BBX 9 8 0 0
BITMAP
FF80
FF80
0080
0300
0300
0C00
0C00
0C00
ENDCHAR
STARTCHAR 0038
ENCODING 56
SWIDTH 600 0
DWIDTH 10 0
BBX 9 8 0 0
BITMAP
FF80
FF80
C180
FF80
FF80
C180
FF80
FF80
ENDCHAR
STARTCHAR 0039
ENCODING 57
SWIDTH 600 0
DWIDTH 10 0
BBX 9 8 0 0
BITMAP
FF80
FF80
C180
FF80
FF80
0180
FF80
FF80
ENDCHAR
STARTCHAR 003A
ENCODING 58
SWIDTH 180 0
DWIDTH 3 0
BBX 2 8 0 0
BITMAP
C0
C0
00
00
00
00
C0
C0
ENDCHAR
STARTCHAR 003B
ENCODING 59
SWIDTH 180 0
DWIDTH 3 0
BBX 2 9 0 -1
BITMAP
C0
C0
00
00
00
00
C0
C0
C0
ENDCHAR
STARTCHAR 003C
ENCODING 60
SWIDTH 420 0
DWIDTH 7 0
BBX 5 8 0 0
BITMAP
08
38
30
C0
C0
30
08
08
ENDCHAR
STARTCHAR 003D
ENCODING 61
SWIDTH 600 0
DWIDTH 10 0
BBX 8 5 0 2
BITMAP
FF
FF
00
FF
FF
ENDCHAR
STARTCHAR 003E
ENCODING 62
SWIDTH 420 0
DWIDTH 7 0
BBX 5 8 0 0
BITMAP
C0
F0
30
08
08
30
C0
C0
ENDCHAR
STARTCHAR 003F
ENCODING 63
SWIDTH 480 0
DWIDTH 8 0
BBX 7 8 0 0
BITMAP
38
FE
C6
18
18
00
18
18
ENDCHAR
STARTCHAR 0040
ENCODING 64
SWIDTH 600 0
DWIDTH 10 0
BBX 9 8 0 0
BITMAP
FF80
FF80
C180
DF80
DF80
C000
FF80
FF80
ENDCHAR
STARTCHAR 0041
ENCODING 65
SWIDTH 600 0
DWIDTH 10 0
BBX 9 8 0 0
BITMAP
FF80
FF80
C180
C180
C180
FF80
FF80
C180
ENDCHAR
STARTCHAR 0042
ENCODING 66
SWIDTH 600 0
DWIDTH 10 0
BBX 9 8 0 0
BITMAP
FF80
FF80
C180
FE00
FE00
C180
FF80
FF80
ENDCHAR
STARTCHAR 0043
ENCODING 67
SWIDTH 600 0
DWIDTH 10 0
BBX 9 8 0 0
BITMAP
FF80
FF80
C000
C000
C000
C000
FF80
FF80
ENDCHAR
STARTCHAR 0044
ENCODING 68
SWIDTH 600 0
DWIDTH 10 0
BBX 9 8 0 0
BITMAP
FE00
FE00
C180
C180
C180
C180
FE00
FE00
ENDCHAR
STARTCHAR 0045
ENCODING 69
SWIDTH 600 0
DWIDTH 10 0
BBX 9 8 0 0
BITMAP
FF80
FF80
C000
FE00
FE00
C000
FF80
FF80
ENDCHAR
STARTCHAR 0046
ENCODING 70
SWIDTH 600 0
DWIDTH 10 0
BBX 9 8 0 0
BITMAP
FF80
FF80
C000
FE00
FE00
C000
C000
C000
ENDCHAR
STARTCHAR 0047
ENCODING 71
SWIDTH 600 0
DWIDTH 10 0
BBX 9 8 0 0
BITMAP
FF80
FF80
C000
C780
C780
C180
FF80
FF80
ENDCHAR
STARTCHAR 0048
ENCODING 72
SWIDTH 600 0
DWIDTH 10 0
BBX 9 8 0 0
BITMAP
C180
C180
C180
FF80
FF80
C180
C180
C180
ENDCHAR
STARTCHAR 0049
ENCODING 73
SWIDTH 600 0
DWIDTH 10 0
BBX 8 8 0 0
BITMAP
FF
FF
18
18
18
18
FF
FF
ENDCHAR
STARTCHAR 004A
ENCODING 74
SWIDTH 600 0
DWIDTH 10 0
BBX 9 8 0 0
BITMAP
0780
0780
0180
0180
0180
C180
FF80
FF80
ENDCHAR
STARTCHAR 004B
ENCODING 75
SWIDTH 600 0
DWIDTH 10 0
BBX 9 8 0 0
BITMAP
C180
C780
C600
F800
F800
C600
C180
C180
ENDCHAR
STARTCHAR 004C
ENCODING 76
SWIDTH 600 0
DWIDTH 10 0
BBX 9 8 0 0
BITMAP
C000
C000
C000
C000
C000
C000
FF80
FF80
ENDCHAR
STARTCHAR 004D
ENCODING 77
SWIDTH 600 0
DWIDTH 10 0
BBX 9 8 0 0
BITMAP
C180
E780
E780
D980
D980
C180
C180
C180
ENDCHAR
STARTCHAR 004E
ENCODING 78
SWIDTH 600 0
DWIDTH 10 0
BBX 9 8 0 0
BITMAP
C180
E180
E180
D980
D980
C780
C780
C180
ENDCHAR
STARTCHAR 004F
ENCODING 79
SWIDTH 600 0
DWIDTH 10 0
BBX 9 8 0 0
BITMAP
3E00
3E00
C180
C180
C180
C180
3E00
3E00
ENDCHAR
STARTCHAR 0050
ENCODING 80
SWIDTH 600 0
DWIDTH 10 0
BBX 9 8 0 0
BITMAP
FE00
FF80
C180
FE00
FE00
C000
C000
C000
ENDCHAR
STARTCHAR 0051
ENCODING 81
SWIDTH 600 0
DWIDTH 10 0
BBX 8 8 0 0
BITMAP
FF
FF
C1
C1
C1
FF
FF
18
ENDCHAR
STARTCHAR 0052
ENCODING 82
SWIDTH 600 0
DWIDTH 10 0
BBX 9 8 0 0
BITMAP
FE00
FF80
C180
FE00
FE00
C180
C180
C180
ENDCHAR
STARTCHAR 0053
ENCODING 83
SWIDTH 600 0
DWIDTH 10 0
BBX 9 8 0 0
BITMAP
FF80
FF80
C000
FF80
FF80
0180
FF80
FF80
ENDCHAR
STARTCHAR 0054
ENCODING 84
SWIDTH 600 0
DWIDTH 10 0
BBX 8 8 0 0
BITMAP
FF
FF
18
18
18
18
18
18
ENDCHAR
STARTCHAR 0055
ENCODING 85
SWIDTH 600 0
DWIDTH 10 0
BBX 9 8 0 0
BITMAP
C180
C180
C180
C180
C180
C180
FF80
FF80
ENDCHAR
STARTCHAR 0056
ENCODING 86
SWIDTH 600 0
DWIDTH 10 0
BBX 9 8 0 0
BITMAP
C180
C180
C180
3600
3600
3600
0800
0800
ENDCHAR
STARTCHAR 0057
ENCODING 87
SWIDTH 600 0
DWIDTH 10 0
BBX 9 8 0 0
BITMAP
C180
C180
C180
C980
C980
C980
3600
3600
ENDCHAR
STARTCHAR 0058
ENCODING 88
SWIDTH 600 0
DWIDTH 10 0
BBX 9 8 0 0
BITMAP
C180
F780
3600
0800
0800
3600
C180
C180
ENDCHAR
STARTCHAR 0059
ENCODING 89
SWIDTH 600 0
DWIDTH 10 0
BBX 9 8 0 0
BITMAP
C180
C180
C180
3600
3600
0800
0800
0800
ENDCHAR
STARTCHAR 005A
ENCODING 90
SWIDTH 600 0
DWIDTH 10 0
BBX 8 8 0 0
BITMAP
FF
FF
06
08
08
30
FF
FF
ENDCHAR
STARTCHAR 005B
ENCODING 91
SWIDTH 300 0
DWIDTH 5 0
BBX 4 8 0 0
BITMAP
F0
F0
C0
C0
C0
C0
F0
F0
ENDCHAR
STARTCHAR 005C
ENCODING 92
SWIDTH 420 0
DWIDTH 7 0
BBX 5 8 0 0
BITMAP
C0
C0
C0
30
30
08
08
08
ENDCHAR
STARTCHAR 005D
ENCODING 93
SWIDTH 300 0
DWIDTH 5 0
BBX 4 8 0 0
BITMAP
F0
F0
30
30
30
30
F0
F0
ENDCHAR
STARTCHAR 005E
ENCODING 94
SWIDTH 600 0
DWIDTH 10 0
BBX 5 3 2 10
BITMAP
20
D8
D8
ENDCHAR
STARTCHAR 005F
ENCODING 95
SWIDTH 600 0
DWIDTH 10 0
BBX 10 2 0 0
BITMAP
FFC0
FFC0
ENDCHAR
STARTCHAR 0060
ENCODING 96
SWIDTH 300 0
DWIDTH 5 0
BBX 4 3 0 10
BITMAP
C0
30
30
ENDCHAR
STARTCHAR 0061
ENCODING 97
SWIDTH 600 0
DWIDTH 10 0
BBX 9 8 0 0
BITMAP
FF80
FF80
C180
C180
C180
FF80
FF80
C180
ENDCHAR
STARTCHAR 0062
ENCODING 98
SWIDTH 600 0
DWIDTH 10 0
BBX 9 8 0 0
BITMAP
FF80
FF80
C180
FE00
FE00
C180
FF80
FF80
ENDCHAR
STARTCHAR 0063
ENCODING 99
SWIDTH 600 0
DWIDTH 10 0
BBX 9 8 0 0
BITMAP
FF80
FF80
C000
C000
C000
C000
FF80
FF80
ENDCHAR
STARTCHAR 0064
ENCODING 100
SWIDTH 600 0
DWIDTH 10 0
BBX 9 8 0 0
BITMAP
FE00
FE00
C180
C180
C180
C180
FE00
FE00
ENDCHAR
STARTCHAR 0065
ENCODING 101
SWIDTH 600 0
DWIDTH 10 0
BBX 9 8 0 0
BITMAP
FF80
FF80
C000
FE00
FE00
C000
FF80
FF80
ENDCHAR
STARTCHAR 0066
ENCODING 102
SWIDTH 600 0
DWIDTH 10 0
BBX 9 8 0 0
BITMAP
FF80
FF80
C000
FE00
FE00
C000
C000
C000
ENDCHAR
STARTCHAR 0067
ENCODING 103
SWIDTH 600 0
DWIDTH 10 0
BBX 9 8 0 0
BITMAP
FF80
FF80
C000
C780
C780
C180
FF80
FF80
ENDCHAR
STARTCHAR 0068
ENCODING 104
SWIDTH 600 0
DWIDTH 10 0
BBX 9 8 0 0
BITMAP
C180
C180
C180
FF80
FF80
C180
C180
C180
ENDCHAR
STARTCHAR 0069
ENCODING 105
SWIDTH 600 0
DWIDTH 10 0
BBX 8 8 0 0
BITMAP
FF
FF
18
18
18
18
FF
FF
ENDCHAR
STARTCHAR 006A
ENCODING 106
SWIDTH 600 0
DWIDTH 10 0
BBX 9 8 0 0
BITMAP
0780
0780
0180
0180
0180
C180
FF80
FF80
ENDCHAR
STARTCHAR 006B
ENCODING 107
SWIDTH 600 0
DWIDTH 10 0
BBX 9 8 0 0
BITMAP
C180
C780
C600
F800
F800
C600
C180
C180
ENDCHAR
STARTCHAR 006C
ENCODING 108
SWIDTH 600 0
DWIDTH 10 0
BBX 9 8 0 0
BITMAP
C000
C000
C000
C000
C000
C000
FF80
FF80
ENDCHAR
STARTCHAR 006D
ENCODING 109
SWIDTH 600 0
DWIDTH 10 0
BBX 9 8 0 0
BITMAP
C180
E780
E780
D980
D980
C180
C180
C180
ENDCHAR
STARTCHAR 006E
ENCODING 110
SWIDTH 600 0
DWIDTH 10 0
BBX 9 8 0 0
BITMAP
C180
E180
E180
D980
D980
C780
C780
C180
ENDCHAR
STARTCHAR 006F
ENCODING 111
SWIDTH 600 0
DWIDTH 10 0
BBX 9 8 0 0
BITMAP
3E00
3E00
C180
C180
C180
C180
3E00
3E00
ENDCHAR
STARTCHAR 0070
ENCODING 112
SWIDTH 600 0
DWIDTH 10 0
BBX 9 8 0 0
BITMAP
FE00
FF80
C180
FE00
FE00
C000
C000
C000
ENDCHAR
STARTCHAR 0071
ENCODING 113
SWIDTH 600 0
DWIDTH 10 0
BBX 8 8 0 0
BITMAP
FF
FF
C1
C1
C1
FF
FF
18
ENDCHAR
STARTCHAR 0072
ENCODING 114
SWIDTH 600 0
DWIDTH 10 0
BBX 9 8 0 0
BITMAP
FE00
FF80
C180
FE00
FE00
C180
C180
C180
ENDCHAR
STARTCHAR 0073
ENCODING 115
SWIDTH 600 0
DWIDTH 10 0
BBX 9 8 0 0
BITMAP
FF80
FF80
C000
FF80
FF80
0180
FF80
FF80
ENDCHAR
STARTCHAR 0074
ENCODING 116
SWIDTH 600 0
DWIDTH 10 0
BBX 8 8 0 0
BITMAP
FF
FF
18
18
18
18
18
18
ENDCHAR
STARTCHAR 0075
ENCODING 117
SWIDTH 600 0
DWIDTH 10 0
BBX 9 8 0 0
BITMAP
C180
C180
C180
C180
C180
C180
FF80
FF80
ENDCHAR
STARTCHAR 0076
ENCODING 118
SWIDTH 600 0
DWIDTH 10 0
BBX 9 8 0 0
BITMAP
C180
C180
C180
3600
3600
3600
0800
0800
ENDCHAR
STARTCHAR 0077
ENCODING 119
SWIDTH 600 0
DWIDTH 10 0
BBX 9 8 0 0
BITMAP
C180
C180
C180
C980
C980
C980
3600
3600
ENDCHAR
STARTCHAR 0078
ENCODING 120
SWIDTH 600 0
DWIDTH 10 0
BBX 9 8 0 0
BITMAP
C180
F780
3600
0800
0800
3600
C180
C180
ENDCHAR
STARTCHAR 0079
ENCODING 121
SWIDTH 600 0
DWIDTH 10 0
BBX 9 8 0 0
BITMAP
C180
C180
C180
3600
3600
0800
0800
0800
ENDCHAR
STARTCHAR 007A
ENCODING 122
SWIDTH 600 0
DWIDTH 10 0
BBX 8 8 0 0
BITMAP
FF
FF
06
08
08
30
FF
FF
ENDCHAR
STARTCHAR 007B
ENCODING 123
SWIDTH 420 0
DWIDTH 7 0
BBX 6 8 0 0
BITMAP
3C
3C
30
F0
F0
30
3C
3C
ENDCHAR
STARTCHAR 007C
ENCODING 124
SWIDTH 180 0
DWIDTH 3 0
BBX 2 8 0 0
BITMAP
C0
C0
C0
00
00
C0
C0
C0
ENDCHAR
STARTCHAR 007D
ENCODING 125
SWIDTH 420 0
DWIDTH 7 0
BBX 6 8 0 0
BITMAP
F0
F0
30
3C
3C
30
F0
F0
ENDCHAR
STARTCHAR 007E
ENCODING 126
SWIDTH 480 0
DWIDTH 8 0
BBX 7 3 0 8
BITMAP
36
C8
C8
ENDCHAR
STARTCHAR 00A0
ENCODING 160
SWIDTH 180 0
DWIDTH 3 0
BBX 0 0 0 0
BITMAP
ENDCHAR
STARTCHAR 00A1
ENCODING 161
SWIDTH 180 0
DWIDTH 3 0
BBX 2 8 0 0
BITMAP
C0
C0
00
C0
C0
C0
C0
C0
ENDCHAR
STARTCHAR 00A2
ENCODING 162
SWIDTH 420 0
DWIDTH 7 0
BBX 5 8 0 0
BITMAP
30
F8
F8
C0
C0
F8
F8
30
ENDCHAR
STARTCHAR 00A3
ENCODING 163
SWIDTH 960 0
DWIDTH 16 0
BBX 9 10 0 0
BITMAP
0E00
0E00
3180
F980
F800
3000
3000
3000
FF80
FF80
ENDCHAR
STARTCHAR 00A4
ENCODING 164
SWIDTH 720 0
DWIDTH 12 0
BBX 9 9 2 1
BITMAP
C180
C180
3E00
3E00
2600
3E00
3E00
C180
C180
ENDCHAR
STARTCHAR 00A5
ENCODING 165
SWIDTH 600 0
DWIDTH 10 0
BBX 9 11 0 0
BITMAP
C180
C180
C180
3600
3600
FF80
FF80
0800
FF80
FF80
0800
ENDCHAR
STARTCHAR 00A6
ENCODING 166
SWIDTH 180 0
DWIDTH 3 0
BBX 2 8 0 0
BITMAP
C0
C0
C0
00
00
C0
C0
C0
ENDCHAR
STARTCHAR 00A7
ENCODING 167
SWIDTH 720 0
DWIDTH 12 0
BBX 10 11 0 -3
BITMAP
3FC0
3FC0
3000
FFC0
FFC0
C040
FFC0
FFC0
0180
FF80
FF80
ENDCHAR
STARTCHAR 00A8
ENCODING 168
SWIDTH 600 0
DWIDTH 10 0
BBX 5 2 2 10
BITMAP
D8
D8
ENDCHAR
STARTCHAR 00A9
ENCODING 169
SWIDTH 780 0
DWIDTH 13 0
BBX 12 11 0 0
BITMAP
3FC0
C030
C030
DF30
DF30
D830
DF30
DF30
C030
3FC0
3FC0
ENDCHAR
STARTCHAR 00AA
ENCODING 170
SWIDTH 420 0
DWIDTH 7 0
BBX 5 5 0 5
BITMAP
F8
F8
F8
D8
D8
ENDCHAR
STARTCHAR 00AB
ENCODING 171
SWIDTH 600 0
DWIDTH 10 0
BBX 9 5 0 3
BITMAP
3180
F780
C600
3180
3180
ENDCHAR
STARTCHAR 00AC
ENCODING 172
SWIDTH 600 0
DWIDTH 10 0
BBX 9 4 0 3
BITMAP
FF80
FF80
0180
0180
ENDCHAR
STARTCHAR 00AD
ENCODING 173
SWIDTH 600 0
DWIDTH 10 0
BBX 8 2 0 3
BITMAP
FF
FF
ENDCHAR
STARTCHAR 00AE
ENCODING 174
SWIDTH 780 0
DWIDTH 13 0
BBX 12 11 0 0
BITMAP
3FC0
C030
C030
DFB0
DFB0
DE30
D9B0
D9B0
C030
3FC0
3FC0
ENDCHAR
STARTCHAR 00AF
ENCODING 175
SWIDTH 600 0
DWIDTH 10 0
BBX 5 2 2 10
BITMAP
F8
F8
ENDCHAR
STARTCHAR 00B0
ENCODING 176
SWIDTH 540 0
DWIDTH 9 0
BBX 5 5 2 5
BITMAP
F8
F8
D8
F8
F8
ENDCHAR
STARTCHAR 00B1
ENCODING 177
SWIDTH 600 0
DWIDTH 10 0
BBX 8 11 0 0
BITMAP
18
18
18
FF
FF
18
18
18
00
FF
FF
ENDCHAR
STARTCHAR 00B2
ENCODING 178
SWIDTH 360 0
DWIDTH 6 0
BBX 4 4 0 7
BITMAP
E0
70
80
F0
ENDCHAR
STARTCHAR 00B3
ENCODING 179
SWIDTH 360 0
DWIDTH 6 0
BBX 4 4 0 7
BITMAP
F0
70
10
F0
ENDCHAR
STARTCHAR 00B4
ENCODING 180
SWIDTH 300 0
DWIDTH 5 0
BBX 4 3 0 10
BITMAP
30
C0
C0
ENDCHAR
STARTCHAR 00B5
ENCODING 181
SWIDTH 420 0
DWIDTH 7 0
BBX 5 6 0 -1
BITMAP
D8
D8
D8
F8
F8
C0
ENDCHAR
STARTCHAR 00B6
ENCODING 182
SWIDTH 600 0
DWIDTH 10 0
BBX 8 8 0 0
BITMAP
3F
FF
F9
3F
3F
19
19
19
ENDCHAR
STARTCHAR 00B7
ENCODING 183
SWIDTH 180 0
DWIDTH 3 0
BBX 2 2 0 5
BITMAP
C0
C0
ENDCHAR
STARTCHAR 00B8
ENCODING 184
SWIDTH 600 0
DWIDTH 10 0
BBX 4 3 3 -3
BITMAP
30
C0
C0
ENDCHAR
STARTCHAR 00B9
ENCODING 185
SWIDTH 240 0
DWIDTH 4 0
BBX 3 4 0 7
BITMAP
40
C0
40
E0
ENDCHAR
STARTCHAR 00BA
ENCODING 186
SWIDTH 420 0
DWIDTH 7 0
BBX 5 5 0 5
BITMAP
F8
F8
D8
F8
F8
ENDCHAR
STARTCHAR 00BB
ENCODING 187
SWIDTH 600 0
DWIDTH 10 0
BBX 9 5 0 3
BITMAP
C600
F780
3180
C600
C600
ENDCHAR
STARTCHAR 00BC
ENCODING 188
SWIDTH 720 0
DWIDTH 12 0
BBX 10 9 0 0
BITMAP
4000
C180
4600
E600
0800
0A00
3200
C3C0
C080
ENDCHAR
STARTCHAR 00BD
ENCODING 189
SWIDTH 720 0
DWIDTH 12 0
BBX 10 10 0 -1
BITMAP
4000
C180
4600
E600
0800
0800
3380
C180
C200
03C0
ENDCHAR
STARTCHAR 00BE
ENCODING 190
SWIDTH 720 0
DWIDTH 12 0
BBX 10 9 0 0
BITMAP
4000
C180
4600
E600
0800
0A00
3200
C3C0
C080
ENDCHAR
STARTCHAR 00BF
ENCODING 191
SWIDTH 480 0
DWIDTH 8 0
BBX 7 8 0 0
BITMAP
30
30
00
30
30
C6
38
38
ENDCHAR
STARTCHAR 00C0
ENCODING 192
SWIDTH 600 0
DWIDTH 10 0
BBX 9 13 0 0
BITMAP
3000
3000
0800
0800
0000
FF80
FF80
C180
C180
C180
FF80
FF80
C180
ENDCHAR
STARTCHAR 00C1
ENCODING 193
SWIDTH 600 0
DWIDTH 10 0
BBX 9 13 0 0
BITMAP
0600
0600
1800
1800
0000
FF80
FF80
C180
C180
C180
FF80
FF80
C180
ENDCHAR
STARTCHAR 00C2
ENCODING 194
SWIDTH 600 0
DWIDTH 10 0
BBX 9 13 0 0
BITMAP
0800
0800
3600
3600
0000
FF80
FF80
C180
C180
C180
FF80
FF80
C180
ENDCHAR
STARTCHAR 00C3
ENCODING 195
SWIDTH 600 0
DWIDTH 10 0
BBX 9 13 0 0
BITMAP
1300
1300
6C00
6C00
0000
FF80
FF80
C180
C180
C180
FF80
FF80
C180
ENDCHAR
STARTCHAR 00C4
ENCODING 196
SWIDTH 600 0
DWIDTH 10 0
BBX 9 11 0 0
BITMAP
3600
3600
0000
FF80
FF80
C180
C180
C180
FF80
FF80
C180
ENDCHAR
STARTCHAR 00C5
ENCODING 197
SWIDTH 600 0
DWIDTH 10 0
BBX 8 11 0 0
BITMAP
18
18
00
FF
FF
C1
C1
C1
FF
FF
C1
ENDCHAR
STARTCHAR 00C6
ENCODING 198
SWIDTH 1020 0
DWIDTH 17 0
BBX 15 8 0 0
BITMAP
FFFE
FFFE
C180
C1FC
C1FC
FF80
C1FE
C1FE
ENDCHAR
STARTCHAR 00C7
ENCODING 199
SWIDTH 600 0
DWIDTH 10 0
BBX 9 11 0 -3
BITMAP
FF80
FF80
C000
C000
C000
C000
FF80
FF80
0600
1800
1800
ENDCHAR
STARTCHAR 00C8
ENCODING 200
SWIDTH 600 0
DWIDTH 10 0
BBX 9 13 0 0
BITMAP
3000
3000
0800
0800
0000
FF80
FF80
C000
FE00
FE00
C000
FF80
FF80
ENDCHAR
STARTCHAR 00C9
ENCODING 201
SWIDTH 600 0
DWIDTH 10 0
BBX 9 13 0 0
BITMAP
0600
0600
1800
1800
0000
FF80
FF80
C000
FE00
FE00
C000
FF80
FF80
ENDCHAR
STARTCHAR 00CA
ENCODING 202
SWIDTH 600 0
DWIDTH 10 0
BBX 9 13 0 0
BITMAP
0800
0800
3600
3600
0000
FF80
FF80
C000
FE00
FE00
C000
FF80
FF80
ENDCHAR
STARTCHAR 00CB
ENCODING 203
SWIDTH 600 0
DWIDTH 10 0
BBX 9 11 0 0
BITMAP
3600
3600
0000
FF80
FF80
C000
FE00
FE00
C000
FF80
FF80
ENDCHAR
STARTCHAR 00CC
ENCODING 204
SWIDTH 600 0
DWIDTH 10 0
BBX 8 13 0 0
BITMAP
30
30
08
08
00
FF
FF
08
08
08
08
FF
FF
ENDCHAR
STARTCHAR 00CD
ENCODING 205
SWIDTH 600 0
DWIDTH 10 0
BBX 8 13 0 0
BITMAP
06
06
18
18
00
FF
FF
18
18
18
18
FF
FF
ENDCHAR
STARTCHAR 00CE
ENCODING 206
SWIDTH 600 0
DWIDTH 10 0
BBX 8 13 0 0
BITMAP
08
08
36
36
00
FF
FF
08
08
08
08
FF
FF
ENDCHAR
STARTCHAR 00CF
ENCODING 207
SWIDTH 600 0
DWIDTH 10 0
BBX 8 11 0 0
BITMAP
36
36
00
FF
FF
08
08
08
08
FF
FF
ENDCHAR
STARTCHAR 00D0
ENCODING 208
SWIDTH 720 0
DWIDTH 12 0
BBX 10 8 0 0
BITMAP
3F00
3F00
30C0
F8C0
F8C0
30C0
3F00
3F00
ENDCHAR
STARTCHAR 00D1
ENCODING 209
SWIDTH 600 0
DWIDTH 10 0
BBX 9 13 0 0
BITMAP
1300
1300
6C00
6C00
0000
C180
E180
E180
D980
D980
C780
C780
C180
ENDCHAR
STARTCHAR 00D2
ENCODING 210
SWIDTH 600 0
DWIDTH 10 0
BBX 9 13 0 0
BITMAP
3000
3000
0800
0800
0000
3E00
3E00
C180
C180
C180
C180
3E00
3E00
ENDCHAR
STARTCHAR 00D3
ENCODING 211
SWIDTH 600 0
DWIDTH 10 0
BBX 9 13 0 0
BITMAP
0600
0600
1800
1800
0000
3E00
3E00
C180
C180
C180
C180
3E00
3E00
ENDCHAR
STARTCHAR 00D4
ENCODING 212
SWIDTH 600 0
DWIDTH 10 0
BBX 9 13 0 0
BITMAP
0800
0800
3600
3600
0000
3E00
3E00
C180
C180
C180
C180
3E00
3E00
ENDCHAR
STARTCHAR 00D5
ENCODING 213
SWIDTH 600 0
DWIDTH 10 0
BBX 9 13 0 0
BITMAP
1300
1300
6C00
6C00
0000
3E00
3E00
C180
C180
C180
C180
3E00
3E00
ENDCHAR
STARTCHAR 00D6
ENCODING 214
SWIDTH 600 0
DWIDTH 10 0
BBX 9 11 0 0
BITMAP
3600
3600
0000
3E00
3E00
C180
C180
C180
C180
3E00
3E00
ENDCHAR
STARTCHAR 00D7
ENCODING 215
SWIDTH 600 0
DWIDTH 10 0
BBX 9 8 0 0
BITMAP
C180
F780
3600
0800
0800
3600
C180
C180
ENDCHAR
STARTCHAR 00D8
ENCODING 216
SWIDTH 780 0
DWIDTH 13 0
BBX 12 12 0 -2
BITMAP
0030
0030
0FC0
0FC0
31C0
36C0
36C0
38C0
3F00
3F00
C000
C000
ENDCHAR
STARTCHAR 00D9
ENCODING 217
SWIDTH 600 0
DWIDTH 10 0
BBX 9 13 0 0
BITMAP
3000
3000
0800
0800
0000
C180
C180
C180
C180
C180
C180
FF80
FF80
ENDCHAR
STARTCHAR 00DA
ENCODING 218
SWIDTH 600 0
DWIDTH 10 0
BBX 9 13 0 0
BITMAP
0600
0600
1800
1800
0000
C180
C180
C180
C180
C180
C180
FF80
FF80
ENDCHAR
STARTCHAR 00DB
ENCODING 219
SWIDTH 600 0
DWIDTH 10 0
BBX 9 13 0 0
BITMAP
0800
0800
3600
3600
0000
C180
C180
C180
C180
C180
C180
FF80
FF80
ENDCHAR
STARTCHAR 00DC
ENCODING 220
SWIDTH 600 0
DWIDTH 10 0
BBX 9 11 0 0
BITMAP
3600
3600
0000
C180
C180
C180
C180
C180
C180
FF80
FF80
ENDCHAR
STARTCHAR 00DD
ENCODING 221
SWIDTH 600 0
DWIDTH 10 0
BBX 9 13 0 0
BITMAP
0600
0600
0800
0800
0000
C180
C180
C180
3600
3600
0800
0800
0800
ENDCHAR
STARTCHAR 00DE
ENCODING 222
SWIDTH 480 0
DWIDTH 8 0
BBX 7 8 0 0
BITMAP
C0
F8
F8
C6
C6
F8
F8
C0
ENDCHAR
STARTCHAR 00DF
ENCODING 223
SWIDTH 600 0
DWIDTH 10 0
BBX 9 10 0 -2
BITMAP
FF80
FF80
C180
C600
C600
C180
DF80
DF80
C000
C000
ENDCHAR
STARTCHAR 00E0
ENCODING 224
SWIDTH 600 0
DWIDTH 10 0
BBX 9 13 0 0
BITMAP
3000
3000
0800
0800
0000
FF80
FF80
C180
C180
C180
FF80
FF80
C180
ENDCHAR
STARTCHAR 00E1
ENCODING 225
SWIDTH 600 0
DWIDTH 10 0
BBX 9 13 0 0
BITMAP
0600
0600
1800
1800
0000
FF80
FF80
C180
C180
C180
FF80
FF80
C180
ENDCHAR
STARTCHAR 00E2
ENCODING 226
SWIDTH 600 0
DWIDTH 10 0
BBX 9 13 0 0
BITMAP
0800
0800
3600
3600
0000
FF80
FF80
C180
C180
C180
FF80
FF80
C180
ENDCHAR
STARTCHAR 00E3
ENCODING 227
SWIDTH 600 0
DWIDTH 10 0
BBX 9 13 0 0
BITMAP
1300
1300
6C00
6C00
0000
FF80
FF80
C180
C180
C180
FF80
FF80
C180
ENDCHAR
STARTCHAR 00E4
ENCODING 228
SWIDTH 600 0
DWIDTH 10 0
BBX 9 11 0 0
BITMAP
3600
3600
0000
FF80
FF80
C180
C180
C180
FF80
FF80
C180
ENDCHAR
STARTCHAR 00E5
ENCODING 229
SWIDTH 600 0
DWIDTH 10 0
BBX 8 11 0 0
BITMAP
18
18
00
FF
FF
C1
C1
C1
FF
FF
C1
ENDCHAR
STARTCHAR 00E6
ENCODING 230
SWIDTH 1020 0
DWIDTH 17 0
BBX 15 8 0 0
BITMAP
FFFE
FFFE
C180
C1FC
C1FC
FF80
C1FE
C1FE
ENDCHAR
STARTCHAR 00E7
ENCODING 231
SWIDTH 600 0
DWIDTH 10 0
BBX 9 11 0 -3
BITMAP
FF80
FF80
C000
C000
C000
C000
FF80
FF80
0600
1800
1800
ENDCHAR
STARTCHAR 00E8
ENCODING 232
SWIDTH 600 0
DWIDTH 10 0
BBX 9 13 0 0
BITMAP
3000
3000
0800
0800
0000
FF80
FF80
C000
FE00
FE00
C000
FF80
FF80
ENDCHAR
STARTCHAR 00E9
ENCODING 233
SWIDTH 600 0
DWIDTH 10 0
BBX 9 13 0 0
BITMAP
0600
0600
1800
1800
0000
FF80
FF80
C000
FE00
FE00
C000
FF80
FF80
ENDCHAR
STARTCHAR 00EA
ENCODING 234
SWIDTH 600 0
DWIDTH 10 0
BBX 9 13 0 0
BITMAP
0800
0800
3600
3600
0000
FF80
FF80
C000
FE00
FE00
C000
FF80
FF80
ENDCHAR
STARTCHAR 00EB
ENCODING 235
SWIDTH 600 0
DWIDTH 10 0
BBX 9 11 0 0
BITMAP
3600
3600
0000
FF80
FF80
C000
FE00
FE00
C000
FF80
FF80
ENDCHAR
STARTCHAR 00EC
ENCODING 236
SWIDTH 600 0
DWIDTH 10 0
BBX 8 13 0 0
BITMAP
30
30
08
08
00
FF
FF
08
08
08
08
FF
FF
ENDCHAR
STARTCHAR 00ED
ENCODING 237
SWIDTH 600 0
DWIDTH 10 0
BBX 8 13 0 0
BITMAP
06
06
18
18
00
FF
FF
18
18
18
18
FF
FF
ENDCHAR
STARTCHAR 00EE
ENCODING 238
SWIDTH 600 0
DWIDTH 10 0
BBX 8 13 0 0
BITMAP
08
08
36
36
00
FF
FF
08
08
08
08
FF
FF
ENDCHAR
STARTCHAR 00EF
ENCODING 239
SWIDTH 600 0
DWIDTH 10 0
BBX 8 11 0 0
BITMAP
36
36
00
FF
FF
08
08
08
08
FF
FF
ENDCHAR
STARTCHAR 00F0
ENCODING 240
SWIDTH 600 0
DWIDTH 10 0
BBX 9 15 0 0
BITMAP
3600
3600
0800
0800
3600
0180
0180
3F80
3F80
C180
C180
C180
C180
3E00
3E00
ENDCHAR
STARTCHAR 00F1
ENCODING 241
SWIDTH 600 0
DWIDTH 10 0
BBX 9 13 0 0
BITMAP
1300
1300
6C00
6C00
0000
C180
E180
E180
D980
D980
C780
C780
C180
ENDCHAR
STARTCHAR 00F2
ENCODING 242
SWIDTH 600 0
DWIDTH 10 0
BBX 9 13 0 0
BITMAP
3000
3000
0800
0800
0000
3E00
3E00
C180
C180
C180
C180
3E00
3E00
ENDCHAR
STARTCHAR 00F3
ENCODING 243
SWIDTH 600 0
DWIDTH 10 0
BBX 9 13 0 0
BITMAP
0600
0600
1800
1800
0000
3E00
3E00
C180
C180
C180
C180
3E00
3E00
ENDCHAR
STARTCHAR 00F4
ENCODING 244
SWIDTH 600 0
DWIDTH 10 0
BBX 9 13 0 0
BITMAP
0800
0800
3600
3600
0000
3E00
3E00
C180
C180
C180
C180
3E00
3E00
ENDCHAR
STARTCHAR 00F5
ENCODING 245
SWIDTH 600 0
DWIDTH 10 0
BBX 9 13 0 0
BITMAP
1300
1300
6C00
6C00
0000
3E00
3E00
C180
C180
C180
C180
3E00
3E00
ENDCHAR
STARTCHAR 00F6
ENCODING 246
SWIDTH 600 0
DWIDTH 10 0
BBX 9 11 0 0
BITMAP
3600
3600
0000
3E00
3E00
C180
C180
C180
C180
3E00
3E00
ENDCHAR
STARTCHAR 00F7
ENCODING 247
SWIDTH 600 0
DWIDTH 10 0
BBX 8 8 0 0
BITMAP
18
18
00
FF
FF
00
18
18
ENDCHAR
STARTCHAR 00F8
ENCODING 248
SWIDTH 780 0
DWIDTH 13 0
BBX 12 12 0 -2
BITMAP
0030
0030
0FC0
0FC0
31C0
36C0
36C0
38C0
3F00
3F00
C000
C000
ENDCHAR
STARTCHAR 00F9
ENCODING 249
SWIDTH 600 0
DWIDTH 10 0
BBX 9 13 0 0
BITMAP
3000
3000
0800
0800
0000
C180
C180
C180
C180
C180
C180
FF80
FF80
ENDCHAR
STARTCHAR 00FA
ENCODING 250
SWIDTH 600 0
DWIDTH 10 0
BBX 9 13 0 0
BITMAP
0600
0600
1800
1800
0000
C180
C180
C180
C180
C180
C180
FF80
FF80
ENDCHAR
STARTCHAR 00FB
ENCODING 251
SWIDTH 600 0
DWIDTH 10 0
BBX 9 13 0 0
BITMAP
0800
0800
3600
3600
0000
C180
C180
C180
C180
C180
C180
FF80
FF80
ENDCHAR
STARTCHAR 00FC
ENCODING 252
SWIDTH 600 0
DWIDTH 10 0
BBX 9 11 0 0
BITMAP
3600
3600
0000
C180
C180
C180
C180
C180
C180
FF80
FF80
ENDCHAR
STARTCHAR 00FD
ENCODING 253
SWIDTH 600 0
DWIDTH 10 0
BBX 9 13 0 0
BITMAP
0600
0600
0800
0800
0000
C180
C180
C180
3600
3600
0800
0800
0800
ENDCHAR
STARTCHAR 00FE
ENCODING 254
SWIDTH 480 0
DWIDTH 8 0
BBX 7 8 0 0
BITMAP
C0
F8
F8
C6
C6
F8
F8
C0
ENDCHAR
STARTCHAR 00FF
ENCODING 255
SWIDTH 600 0
DWIDTH 10 0
BBX 9 11 0 0
BITMAP
3600
3600
0000
C180
C180
C180
3600
3600
0800
0800
0800
ENDCHAR
STARTCHAR 0100
ENCODING 256
SWIDTH 600 0
DWIDTH 10 0
BBX 9 11 0 0
BITMAP
3E00
3E00
0000
FF80
FF80
C180
C180
C180
FF80
FF80
C180
ENDCHAR
STARTCHAR 0101
ENCODING 257
SWIDTH 600 0
DWIDTH 10 0
BBX 9 11 0 0
BITMAP
3E00
3E00
0000
FF80
FF80
C180
C180
C180
FF80
FF80
C180
ENDCHAR
STARTCHAR 0102
ENCODING 258
SWIDTH 600 0
DWIDTH 10 0
BBX 9 13 0 0
BITMAP
6300
6300
1C00
1C00
0000
FF80
FF80
C180
C180
C180
FF80
FF80
C180
ENDCHAR
STARTCHAR 0103
ENCODING 259
SWIDTH 600 0
DWIDTH 10 0
BBX 9 13 0 0
BITMAP
6300
6300
1C00
1C00
0000
FF80
FF80
C180
C180
C180
FF80
FF80
C180
ENDCHAR
STARTCHAR 0104
ENCODING 260
SWIDTH 720 0
DWIDTH 12 0
BBX 12 11 0 -3
BITMAP
FF80
FF80
C180
C180
C180
FF80
FF80
C180
0180
0070
0070
ENDCHAR
STARTCHAR 0105
ENCODING 261
SWIDTH 720 0
DWIDTH 12 0
BBX 12 11 0 -3
BITMAP
FF80
FF80
C180
C180
C180
FF80
FF80
C180
0180
0070
0070
ENDCHAR
STARTCHAR 0106
ENCODING 262
SWIDTH 600 0
DWIDTH 10 0
BBX 9 13 0 0
BITMAP
0600
0600
1800
1800
0000
FF80
FF80
C000
C000
C000
C000
FF80
FF80
ENDCHAR
STARTCHAR 0107
ENCODING 263
SWIDTH 600 0
DWIDTH 10 0
BBX 9 13 0 0
BITMAP
0600
0600
1800
1800
0000
FF80
FF80
C000
C000
C000
C000
FF80
FF80
ENDCHAR
STARTCHAR 0108
ENCODING 264
SWIDTH 600 0
DWIDTH 10 0
BBX 9 13 0 0
BITMAP
0800
0800
3600
3600
0000
FF80
FF80
C000
C000
C000
C000
FF80
FF80
ENDCHAR
STARTCHAR 0109
ENCODING 265
SWIDTH 600 0
DWIDTH 10 0
BBX 9 13 0 0
BITMAP
0800
0800
3600
3600
0000
FF80
FF80
C000
C000
C000
C000
FF80
FF80
ENDCHAR
STARTCHAR 010A
ENCODING 266
SWIDTH 600 0
DWIDTH 10 0
BBX 9 11 0 0
BITMAP
1800
1800
0000
FF80
FF80
C000
C000
C000
C000
FF80
FF80
ENDCHAR
STARTCHAR 010B
ENCODING 267
SWIDTH 600 0
DWIDTH 10 0
BBX 9 11 0 0
BITMAP
1800
1800
0000
FF80
FF80
C000
C000
C000
C000
FF80
FF80
ENDCHAR
STARTCHAR 010C
ENCODING 268
SWIDTH 600 0
DWIDTH 10 0
BBX 9 13 0 0
BITMAP
3600
3600
0800
0800
0000
FF80
FF80
C000
C000
C000
C000
FF80
FF80
ENDCHAR
STARTCHAR 010D
ENCODING 269
SWIDTH 600 0
DWIDTH 10 0
BBX 9 13 0 0
BITMAP
3600
3600
0800
0800
0000
FF80
FF80
C000
C000
C000
C000
FF80
FF80
ENDCHAR
STARTCHAR 010E
ENCODING 270
SWIDTH 600 0
DWIDTH 10 0
BBX 9 13 0 0
BITMAP
3600
3600
0800
0800
0000
FE00
FE00
C180
C180
C180
C180
FE00
FE00
ENDCHAR
STARTCHAR 010F
ENCODING 271
SWIDTH 600 0
DWIDTH 10 0
BBX 9 13 0 0
BITMAP
3600
3600
0800
0800
0000
FE00
FE00
C180
C180
C180
C180
FE00
FE00
ENDCHAR
STARTCHAR 0110
ENCODING 272
SWIDTH 720 0
DWIDTH 12 0
BBX 10 8 0 0
BITMAP
3F00
3F00
30C0
F8C0
F8C0
30C0
3F00
3F00
ENDCHAR
STARTCHAR 0111
ENCODING 273
SWIDTH 720 0
DWIDTH 12 0
BBX 10 8 0 0
BITMAP
3F00
3F00
30C0
F8C0
F8C0
30C0
3F00
3F00
ENDCHAR
STARTCHAR 0112
ENCODING 274
SWIDTH 600 0
DWIDTH 10 0
BBX 9 11 0 0
BITMAP
3E00
3E00
0000
FF80
FF80
C000
FE00
FE00
C000
FF80
FF80
ENDCHAR
STARTCHAR 0113
ENCODING 275
SWIDTH 600 0
DWIDTH 10 0
BBX 9 11 0 0
BITMAP
3E00
3E00
0000
FF80
FF80
C000
FE00
FE00
C000
FF80
FF80
ENDCHAR
STARTCHAR 0114
ENCODING 276
SWIDTH 600 0
DWIDTH 10 0
BBX 9 13 0 0
BITMAP
6300
6300
1C00
1C00
0000
FF80
FF80
C000
FE00
FE00
C000
FF80
FF80
ENDCHAR
STARTCHAR 0115
ENCODING 277
SWIDTH 600 0
DWIDTH 10 0
BBX 9 13 0 0
BITMAP
6300
6300
1C00
1C00
0000
FF80
FF80
C000
FE00
FE00
C000
FF80
FF80
ENDCHAR
STARTCHAR 0116
ENCODING 278
SWIDTH 600 0
DWIDTH 10 0
BBX 9 11 0 0
BITMAP
1800
1800
0000
FF80
FF80
C000
FE00
FE00
C000
FF80
FF80
ENDCHAR
STARTCHAR 0117
ENCODING 279
SWIDTH 600 0
DWIDTH 10 0
BBX 9 11 0 0
BITMAP
1800
1800
0000
FF80
FF80
C000
FE00
FE00
C000
FF80
FF80
ENDCHAR
STARTCHAR 0118
ENCODING 280
SWIDTH 600 0
DWIDTH 10 0
BBX 10 11 0 -3
BITMAP
FF80
FF80
C000
FE00
FE00
C000
FF80
FF80
0600
01C0
01C0
ENDCHAR
STARTCHAR 0119
ENCODING 281
SWIDTH 600 0
DWIDTH 10 0
BBX 10 11 0 -3
BITMAP
FF80
FF80
C000
FE00
FE00
C000
FF80
FF80
0600
01C0
01C0
ENDCHAR
STARTCHAR 011A
ENCODING 282
SWIDTH 600 0
DWIDTH 10 0
BBX 9 13 0 0
BITMAP
3600
3600
0800
0800
0000
FF80
FF80
C000
FE00
FE00
C000
FF80
FF80
ENDCHAR
STARTCHAR 011B
ENCODING 283
SWIDTH 600 0
DWIDTH 10 0
BBX 9 13 0 0
BITMAP
3600
3600
0800
0800
0000
FF80
FF80
C000
FE00
FE00
C000
FF80
FF80
ENDCHAR
STARTCHAR 011C
ENCODING 284
SWIDTH 600 0
DWIDTH 10 0
BBX 9 13 0 0
BITMAP
0800
0800
3600
3600
0000
FF80
FF80
C000
C780
C780
C180
FF80
FF80
ENDCHAR
STARTCHAR 011D
ENCODING 285
SWIDTH 600 0
DWIDTH 10 0
BBX 9 13 0 0
BITMAP
0800
0800
3600
3600
0000
FF80
FF80
C000
C780
C780
C180
FF80
FF80
ENDCHAR
STARTCHAR 011E
ENCODING 286
SWIDTH 600 0
DWIDTH 10 0
BBX 9 13 0 0
BITMAP
6300
6300
1C00
1C00
0000
FF80
FF80
C000
C780
C780
C180
FF80
FF80
ENDCHAR
STARTCHAR 011F
ENCODING 287
SWIDTH 600 0
DWIDTH 10 0
BBX 9 13 0 0
BITMAP
6300
6300
1C00
1C00
0000
FF80
FF80
C000
C780
C780
C180
FF80
FF80
ENDCHAR
STARTCHAR 0120
ENCODING 288
SWIDTH 600 0
DWIDTH 10 0
BBX 9 11 0 0
BITMAP
1800
1800
0000
FF80
FF80
C000
C780
C780
C180
FF80
FF80
ENDCHAR
STARTCHAR 0121
ENCODING 289
SWIDTH 600 0
DWIDTH 10 0
BBX 9 11 0 0
BITMAP
1800
1800
0000
FF80
FF80
C000
C780
C780
C180
FF80
FF80
ENDCHAR
STARTCHAR 0122
ENCODING 290
SWIDTH 600 0
DWIDTH 10 0
BBX 9 11 0 -3
BITMAP
FF80
FF80
C000
C780
C780
C180
FF80
FF80
0600
1800
1800
ENDCHAR
STARTCHAR 0123
ENCODING 291
SWIDTH 600 0
DWIDTH 10 0
BBX 9 11 0 -3
BITMAP
FF80
FF80
C000
C780
C780
C180
FF80
FF80
0600
1800
1800
ENDCHAR
STARTCHAR 0124
ENCODING 292
SWIDTH 600 0
DWIDTH 10 0
BBX 9 13 0 0
BITMAP
0800
0800
3600
3600
0000
C180
C180
C180
FF80
FF80
C180
C180
C180
ENDCHAR
STARTCHAR 0125
ENCODING 293
SWIDTH 600 0
DWIDTH 10 0
BBX 9 13 0 0
BITMAP
0800
0800
3600
3600
0000
C180
C180
C180
FF80
FF80
C180
C180
C180
ENDCHAR
STARTCHAR 0126
ENCODING 294
SWIDTH 600 0
DWIDTH 10 0
BBX 9 11 0 0
BITMAP
3E00
3E00
0000
C180
C180
C180
FF80
FF80
C180
C180
C180
ENDCHAR
STARTCHAR 0127
ENCODING 295
SWIDTH 600 0
DWIDTH 10 0
BBX 9 11 0 0
BITMAP
3E00
3E00
0000
C180
C180
C180
FF80
FF80
C180
C180
C180
ENDCHAR
STARTCHAR 0128
ENCODING 296
SWIDTH 600 0
DWIDTH 10 0
BBX 8 13 0 0
BITMAP
13
13
6C
6C
00
FF
FF
18
18
18
18
FF
FF
ENDCHAR
STARTCHAR 0129
ENCODING 297
SWIDTH 600 0
DWIDTH 10 0
BBX 8 13 0 0
BITMAP
13
13
6C
6C
00
FF
FF
18
18
18
18
FF
FF
ENDCHAR
STARTCHAR 012A
ENCODING 298
SWIDTH 600 0
DWIDTH 10 0
BBX 8 11 0 0
BITMAP
3E
3E
00
FF
FF
18
18
18
18
FF
FF
ENDCHAR
STARTCHAR 012B
ENCODING 299
SWIDTH 600 0
DWIDTH 10 0
BBX 8 11 0 0
BITMAP
3E
3E
00
FF
FF
18
18
18
18
FF
FF
ENDCHAR
STARTCHAR 012C
ENCODING 300
SWIDTH 600 0
DWIDTH 10 0
BBX 8 13 0 0
BITMAP
63
63
1C
1C
00
FF
FF
18
18
18
18
FF
FF
ENDCHAR
STARTCHAR 012D
ENCODING 301
SWIDTH 600 0
DWIDTH 10 0
BBX 8 13 0 0
BITMAP
63
63
1C
1C
00
FF
FF
18
18
18
18
FF
FF
ENDCHAR
STARTCHAR 012E
ENCODING 302
SWIDTH 600 0
DWIDTH 10 0
BBX 10 11 0 -3
BITMAP
FF00
FF00
1800
1800
1800
1800
FF00
FF00
0600
01C0
01C0
ENDCHAR
STARTCHAR 012F
ENCODING 303
SWIDTH 600 0
DWIDTH 10 0
BBX 10 11 0 -3
BITMAP
FF00
FF00
1800
1800
1800
1800
FF00
FF00
0600
01C0
01C0
ENDCHAR
STARTCHAR 0130
ENCODING 304
SWIDTH 600 0
DWIDTH 10 0
BBX 8 11 0 0
BITMAP
18
18
00
FF
FF
18
18
18
18
FF
FF
ENDCHAR
STARTCHAR 0131
ENCODING 305
SWIDTH 600 0
DWIDTH 10 0
BBX 8 8 0 0
BITMAP
FF
FF
18
18
18
18
FF
FF
ENDCHAR
STARTCHAR 0132
ENCODING 306
SWIDTH 1200 0
DWIDTH 20 0
BBX 19 8 0 0
BITMAP
FF01E0
FF01E0
180060
180060
180060
183060
FF3FE0
FF3FE0
ENDCHAR
STARTCHAR 0133
ENCODING 307
SWIDTH 1200 0
DWIDTH 20 0
BBX 19 8 0 0
BITMAP
FF01E0
FF01E0
180060
180060
180060
183060
FF3FE0
FF3FE0
ENDCHAR
STARTCHAR 0134
ENCODING 308
SWIDTH 600 0
DWIDTH 10 0
BBX 9 13 0 0
BITMAP
0800
0800
3600
3600
0000
0780
0780
0180
0180
0180
C180
FF80
FF80
ENDCHAR
STARTCHAR 0135
ENCODING 309
SWIDTH 600 0
DWIDTH 10 0
BBX 9 13 0 0
BITMAP
0800
0800
3600
3600
0000
0780
0780
0180
0180
0180
C180
FF80
FF80
ENDCHAR
STARTCHAR 0136
ENCODING 310
SWIDTH 600 0
DWIDTH 10 0
BBX 9 11 0 -3
BITMAP
C180
C780
C600
F800
F800
C600
C180
C180
0600
1800
1800
ENDCHAR
STARTCHAR 0137
ENCODING 311
SWIDTH 600 0
DWIDTH 10 0
BBX 9 11 0 -3
BITMAP
C180
C780
C600
F800
F800
C600
C180
C180
0600
1800
1800
ENDCHAR
STARTCHAR 0138
ENCODING 312
SWIDTH 600 0
DWIDTH 10 0
BBX 9 8 0 0
BITMAP
C180
C780
C600
F800
F800
C600
C180
C180
ENDCHAR
STARTCHAR 0139
ENCODING 313
SWIDTH 600 0
DWIDTH 10 0
BBX 9 13 0 0
BITMAP
0600
0600
1800
1800
0000
C000
C000
C000
C000
C000
C000
FF80
FF80
ENDCHAR
STARTCHAR 013A
ENCODING 314
SWIDTH 600 0
DWIDTH 10 0
BBX 9 13 0 0
BITMAP
0600
0600
1800
1800
0000
C000
C000
C000
C000
C000
C000
FF80
FF80
ENDCHAR
STARTCHAR 013B
ENCODING 315
SWIDTH 600 0
DWIDTH 10 0
BBX 9 11 0 -3
BITMAP
C000
C000
C000
C000
C000
C000
FF80
FF80
0600
1800
1800
ENDCHAR
STARTCHAR 013C
ENCODING 316
SWIDTH 600 0
DWIDTH 10 0
BBX 9 11 0 -3
BITMAP
C000
C000
C000
C000
C000
C000
FF80
FF80
0600
1800
1800
ENDCHAR
STARTCHAR 013D
ENCODING 317
SWIDTH 600 0
DWIDTH 10 0
BBX 9 13 0 0
BITMAP
3600
3600
0800
0800
0000
C000
C000
C000
C000
C000
C000
FF80
FF80
ENDCHAR
STARTCHAR 013E
ENCODING 318
SWIDTH 600 0
DWIDTH 10 0
BBX 9 13 0 0
BITMAP
3600
3600
0800
0800
0000
C000
C000
C000
C000
C000
C000
FF80
FF80
ENDCHAR
STARTCHAR 013F
ENCODING 319
SWIDTH 600 0
DWIDTH 10 0
BBX 9 11 0 0
BITMAP
1800
1800
0000
C000
C000
C000
C000
C000
C000
FF80
FF80
ENDCHAR
STARTCHAR 0140
ENCODING 320
SWIDTH 600 0
DWIDTH 10 0
BBX 9 11 0 0
BITMAP
1800
1800
0000
C000
C000
C000
C000
C000
C000
FF80
FF80
ENDCHAR
STARTCHAR 0141
ENCODING 321
SWIDTH 720 0
DWIDTH 12 0
BBX 10 8 0 0
BITMAP
3000
3800
3800
3000
3000
F000
3FC0
3FC0
ENDCHAR
STARTCHAR 0142
ENCODING 322
SWIDTH 720 0
DWIDTH 12 0
BBX 10 8 0 0
BITMAP
3000
3800
3800
3000
3000
F000
3FC0
3FC0
ENDCHAR
STARTCHAR 0143
ENCODING 323
SWIDTH 600 0
DWIDTH 10 0
BBX 9 13 0 0
BITMAP
0600
0600
1800
1800
0000
C180
E180
E180
D980
D980
C780
C780
C180
ENDCHAR
STARTCHAR 0144
ENCODING 324
SWIDTH 600 0
DWIDTH 10 0
BBX 9 13 0 0
BITMAP
0600
0600
1800
1800
0000
C180
E180
E180
D980
D980
C780
C780
C180
ENDCHAR
STARTCHAR 0145
ENCODING 325
SWIDTH 600 0
DWIDTH 10 0
BBX 9 11 0 -3
BITMAP
C180
E180
E180
D980
D980
C780
C780
C180
0600
1800
1800
ENDCHAR
STARTCHAR 0146
ENCODING 326
SWIDTH 600 0
DWIDTH 10 0
BBX 9 11 0 -3
BITMAP
C180
E180
E180
D980
D980
C780
C780
C180
0600
1800
1800
ENDCHAR
STARTCHAR 0147
ENCODING 327
SWIDTH 600 0
DWIDTH 10 0
BBX 9 13 0 0
BITMAP
3600
3600
0800
0800
0000
C180
F180
F180
C980
C980
C780
C780
C180
ENDCHAR
STARTCHAR 0148
ENCODING 328
SWIDTH 600 0
DWIDTH 10 0
BBX 9 13 0 0
BITMAP
3600
3600
0800
0800
0000
C180
F180
F180
C980
C980
C780
C780
C180
ENDCHAR
STARTCHAR 0149
ENCODING 329
SWIDTH 720 0
DWIDTH 12 0
BBX 10 13 0 0
BITMAP
C000
C000
C000
0000
0000
30C0
38C0
38C0
36C0
36C0
31C0
31C0
30C0
ENDCHAR
STARTCHAR 014A
ENCODING 330
SWIDTH 600 0
DWIDTH 10 0
BBX 9 8 0 0
BITMAP
3E00
3E00
C180
C180
C180
C180
C600
C600
ENDCHAR
STARTCHAR 014B
ENCODING 331
SWIDTH 600 0
DWIDTH 10 0
BBX 9 11 0 -3
BITMAP
3E00
3E00
C180
C180
C180
C180
C180
C180
0180
0600
0600
ENDCHAR
STARTCHAR 014C
ENCODING 332
SWIDTH 600 0
DWIDTH 10 0
BBX 9 11 0 0
BITMAP
3E00
3E00
0000
3E00
3E00
C180
C180
C180
C180
3E00
3E00
ENDCHAR
STARTCHAR 014D
ENCODING 333
SWIDTH 600 0
DWIDTH 10 0
BBX 9 11 0 0
BITMAP
3E00
3E00
0000
3E00
3E00
C180
C180
C180
C180
3E00
3E00
ENDCHAR
STARTCHAR 014E
ENCODING 334
SWIDTH 600 0
DWIDTH 10 0
BBX 9 13 0 0
BITMAP
6300
6300
1C00
1C00
0000
3E00
3E00
C180
C180
C180
C180
3E00
3E00
ENDCHAR
STARTCHAR 014F
ENCODING 335
SWIDTH 600 0
DWIDTH 10 0
BBX 9 13 0 0
BITMAP
6300
6300
1C00
1C00
0000
3E00
3E00
C180
C180
C180
C180
3E00
3E00
ENDCHAR
STARTCHAR 0150
ENCODING 336
SWIDTH 600 0
DWIDTH 10 0
BBX 9 13 0 0
BITMAP
3180
3180
C600
C600
0000
3E00
3E00
C180
C180
C180
C180
3E00
3E00
ENDCHAR
STARTCHAR 0151
ENCODING 337
SWIDTH 600 0
DWIDTH 10 0
BBX 9 13 0 0
BITMAP
3180
3180
C600
C600
0000
3E00
3E00
C180
C180
C180
C180
3E00
3E00
ENDCHAR
STARTCHAR 0152
ENCODING 338
SWIDTH 1020 0
DWIDTH 17 0
BBX 15 8 0 0
BITMAP
3FFE
3FFE
C180
C1FC
C1FC
C180
3FFE
3FFE
ENDCHAR
STARTCHAR 0153
ENCODING 339
SWIDTH 1020 0
DWIDTH 17 0
BBX 15 8 0 0
BITMAP
3FFE
3FFE
C180
C1FC
C1FC
C180
3FFE
3FFE
ENDCHAR
STARTCHAR 0154
ENCODING 340
SWIDTH 600 0
DWIDTH 10 0
BBX 9 13 0 0
BITMAP
0600
0600
1800
1800
0000
FE00
FF80
C180
FE00
FE00
C180
C180
C180
ENDCHAR
STARTCHAR 0155
ENCODING 341
SWIDTH 600 0
DWIDTH 10 0
BBX 9 13 0 0
BITMAP
0600
0600
1800
1800
0000
FE00
FF80
C180
FE00
FE00
C180
C180
C180
ENDCHAR
STARTCHAR 0156
ENCODING 342
SWIDTH 600 0
DWIDTH 10 0
BBX 9 11 0 -3
BITMAP
FE00
FF80
C180
FE00
FE00
C180
C180
C180
0600
1800
1800
ENDCHAR
STARTCHAR 0157
ENCODING 343
SWIDTH 600 0
DWIDTH 10 0
BBX 9 11 0 -3
BITMAP
FE00
FF80
C180
FE00
FE00
C180
C180
C180
0600
1800
1800
ENDCHAR
STARTCHAR 0158
ENCODING 344
SWIDTH 600 0
DWIDTH 10 0
BBX 9 13 0 0
BITMAP
3600
3600
0800
0800
0000
FE00
FF80
C180
FE00
FE00
C180
C180
C180
ENDCHAR
STARTCHAR 0159
ENCODING 345
SWIDTH 600 0
DWIDTH 10 0
BBX 9 13 0 0
BITMAP
3600
3600
0800
0800
0000
FE00
FF80
C180
FE00
FE00
C180
C180
C180
ENDCHAR
STARTCHAR 015A
ENCODING 346
SWIDTH 600 0
DWIDTH 10 0
BBX 9 13 0 0
BITMAP
0600
0600
1800
1800
0000
FF80
FF80
C000
FF80
FF80
0180
FF80
FF80
ENDCHAR
STARTCHAR 015B
ENCODING 347
SWIDTH 600 0
DWIDTH 10 0
BBX 9 13 0 0
BITMAP
0600
0600
1800
1800
0000
FF80
FF80
C000
FF80
FF80
0180
FF80
FF80
ENDCHAR
STARTCHAR 015C
ENCODING 348
SWIDTH 600 0
DWIDTH 10 0
BBX 9 13 0 0
BITMAP
0800
0800
3600
3600
0000
FF80
FF80
C000
FF80
FF80
0180
FF80
FF80
ENDCHAR
STARTCHAR 015D
ENCODING 349
SWIDTH 600 0
DWIDTH 10 0
BBX 9 13 0 0
BITMAP
0800
0800
3600
3600
0000
FF80
FF80
C000
FF80
FF80
0180
FF80
FF80
ENDCHAR
STARTCHAR 015E
ENCODING 350
SWIDTH 600 0
DWIDTH 10 0
BBX 9 11 0 -3
BITMAP
FF80
FF80
C000
FF80
FF80
0180
FF80
FF80
0600
1800
1800
ENDCHAR
STARTCHAR 015F
ENCODING 351
SWIDTH 600 0
DWIDTH 10 0
BBX 9 11 0 -3
BITMAP
FF80
FF80
C000
FF80
FF80
0180
FF80
FF80
0600
1800
1800
ENDCHAR
STARTCHAR 0160
ENCODING 352
SWIDTH 600 0
DWIDTH 10 0
BBX 9 13 0 0
BITMAP
3600
3600
0800
0800
0000
FF80
FF80
C000
FF80
FF80
0180
FF80
FF80
ENDCHAR
STARTCHAR 0161
ENCODING 353
SWIDTH 600 0
DWIDTH 10 0
BBX 9 13 0 0
BITMAP
3600
3600
0800
0800
0000
FF80
FF80
C000
FF80
FF80
0180
FF80
FF80
ENDCHAR
STARTCHAR 0162
ENCODING 354
SWIDTH 600 0
DWIDTH 10 0
BBX 8 11 0 -3
BITMAP
FF
FF
18
18
18
18
18
18
06
18
18
ENDCHAR
STARTCHAR 0163
ENCODING 355
SWIDTH 600 0
DWIDTH 10 0
BBX 8 11 0 -3
BITMAP
FF
FF
18
18
18
18
18
18
06
18
18
ENDCHAR
STARTCHAR 0164
ENCODING 356
SWIDTH 600 0
DWIDTH 10 0
BBX 8 13 0 0
BITMAP
36
36
08
08
00
FF
FF
08
08
08
08
08
08
ENDCHAR
STARTCHAR 0165
ENCODING 357
SWIDTH 600 0
DWIDTH 10 0
BBX 8 13 0 0
BITMAP
36
36
08
08
00
FF
FF
08
08
08
08
08
08
ENDCHAR
STARTCHAR 0166
ENCODING 358
SWIDTH 600 0
DWIDTH 10 0
BBX 8 8 0 0
BITMAP
FF
FF
18
3E
3E
18
18
18
ENDCHAR
STARTCHAR 0167
ENCODING 359
SWIDTH 600 0
DWIDTH 10 0
BBX 8 8 0 0
BITMAP
FF
FF
18
3E
3E
18
18
18
ENDCHAR
STARTCHAR 0168
ENCODING 360
SWIDTH 600 0
DWIDTH 10 0
BBX 9 13 0 0
BITMAP
1300
1300
6C00
6C00
0000
C180
C180
C180
C180
C180
C180
FF80
FF80
ENDCHAR
STARTCHAR 0169
ENCODING 361
SWIDTH 600 0
DWIDTH 10 0
BBX 9 13 0 0
BITMAP
1300
1300
6C00
6C00
0000
C180
C180
C180
C180
C180
C180
FF80
FF80
ENDCHAR
STARTCHAR 016A
ENCODING 362
SWIDTH 600 0
DWIDTH 10 0
BBX 9 11 0 0
BITMAP
3E00
3E00
0000
C180
C180
C180
C180
C180
C180
FF80
FF80
ENDCHAR
STARTCHAR 016B
ENCODING 363
SWIDTH 600 0
DWIDTH 10 0
BBX 9 11 0 0
BITMAP
3E00
3E00
0000
C180
C180
C180
C180
C180
C180
FF80
FF80
ENDCHAR
STARTCHAR 016C
ENCODING 364
SWIDTH 600 0
DWIDTH 10 0
BBX 9 13 0 0
BITMAP
6300
6300
1C00
1C00
0000
C180
C180
C180
C180
C180
C180
FF80
FF80
ENDCHAR
STARTCHAR 016D
ENCODING 365
SWIDTH 600 0
DWIDTH 10 0
BBX 9 13 0 0
BITMAP
6300
6300
1C00
1C00
0000
C180
C180
C180
C180
C180
C180
FF80
FF80
ENDCHAR
STARTCHAR 016E
ENCODING 366
SWIDTH 600 0
DWIDTH 10 0
BBX 8 11 0 0
BITMAP
18
18
00
C1
C1
C1
C1
C1
C1
FF
FF
ENDCHAR
STARTCHAR 016F
ENCODING 367
SWIDTH 600 0
DWIDTH 10 0
BBX 8 11 0 0
BITMAP
18
18
00
C1
C1
C1
C1
C1
C1
FF
FF
ENDCHAR
STARTCHAR 0170
ENCODING 368
SWIDTH 600 0
DWIDTH 10 0
BBX 9 13 0 0
BITMAP
3180
3180
C600
C600
0000
C180
C180
C180
C180
C180
C180
FF80
FF80
ENDCHAR
STARTCHAR 0171
ENCODING 369
SWIDTH 600 0
DWIDTH 10 0
BBX 9 13 0 0
BITMAP
3180
3180
C600
C600
0000
C180
C180
C180
C180
C180
C180
FF80
FF80
ENDCHAR
STARTCHAR 0172
ENCODING 370
SWIDTH 600 0
DWIDTH 10 0
BBX 8 11 0 -3
BITMAP
C3
C3
C3
C3
C3
C3
FF
FF
18
07
07
ENDCHAR
STARTCHAR 0173
ENCODING 371
SWIDTH 600 0
DWIDTH 10 0
BBX 8 11 0 -3
BITMAP
C3
C3
C3
C3
C3
C3
FF
FF
18
07
07
ENDCHAR
STARTCHAR 0174
ENCODING 372
SWIDTH 600 0
DWIDTH 10 0
BBX 9 13 0 0
BITMAP
0800
0800
3600
3600
0000
C180
C180
C180
C980
C980
C980
3600
3600
ENDCHAR
STARTCHAR 0175
ENCODING 373
SWIDTH 600 0
DWIDTH 10 0
BBX 9 13 0 0
BITMAP
0800
0800
3600
3600
0000
C180
C180
C180
C980
C980
C980
3600
3600
ENDCHAR
STARTCHAR 0176
ENCODING 374
SWIDTH 600 0
DWIDTH 10 0
BBX 9 13 0 0
BITMAP
0800
0800
3600
3600
0000
C180
C180
C180
3600
3600
0800
0800
0800
ENDCHAR
STARTCHAR 0177
ENCODING 375
SWIDTH 600 0
DWIDTH 10 0
BBX 9 13 0 0
BITMAP
0800
0800
3600
3600
0000
C180
C180
C180
3600
3600
0800
0800
0800
ENDCHAR
STARTCHAR 0178
ENCODING 376
SWIDTH 600 0
DWIDTH 10 0
BBX 9 11 0 0
BITMAP
3600
3600
0000
C180
C180
C180
3600
3600
0800
0800
0800
ENDCHAR
STARTCHAR 0179
ENCODING 377
SWIDTH 600 0
DWIDTH 10 0
BBX 8 13 0 0
BITMAP
06
06
08
08
00
FF
FF
06
08
08
30
FF
FF
ENDCHAR
STARTCHAR 017A
ENCODING 378
SWIDTH 600 0
DWIDTH 10 0
BBX 8 13 0 0
BITMAP
06
06
08
08
00
FF
FF
06
08
08
30
FF
FF
ENDCHAR
STARTCHAR 017B
ENCODING 379
SWIDTH 600 0
DWIDTH 10 0
BBX 8 11 0 0
BITMAP
08
08
00
FF
FF
06
08
08
30
FF
FF
ENDCHAR
STARTCHAR 017C
ENCODING 380
SWIDTH 600 0
DWIDTH 10 0
BBX 8 11 0 0
BITMAP
08
08
00
FF
FF
06
08
08
30
FF
FF
ENDCHAR
STARTCHAR 017D
ENCODING 381
SWIDTH 600 0
DWIDTH 10 0
BBX 8 13 0 0
BITMAP
36
36
08
08
00
FF
FF
06
08
08
30
FF
FF
ENDCHAR
STARTCHAR 017E
ENCODING 382
SWIDTH 600 0
DWIDTH 10 0
BBX 8 13 0 0
BITMAP
36
36
08
08
00
FF
FF
06
08
08
30
FF
FF
ENDCHAR
STARTCHAR 017F
ENCODING 383
SWIDTH 420 0
DWIDTH 7 0
BBX 5 10 0 0
BITMAP
38
38
C0
C0
C0
C0
C0
C0
C0
C0
ENDCHAR
STARTCHAR 0192
ENCODING 402
SWIDTH 420 0
DWIDTH 7 0
BBX 5 12 0 -2
BITMAP
38
38
30
30
F8
F8
30
30
30
30
F0
F0
ENDCHAR
STARTCHAR 01FA
ENCODING 506
SWIDTH 600 0
DWIDTH 10 0
BBX 9 16 0 0
BITMAP
0600
1800
1800
0000
0000
1800
1800
0000
FF80
FF80
C180
C180
C180
FF80
FF80
C180
ENDCHAR
STARTCHAR 01FB
ENCODING 507
SWIDTH 600 0
DWIDTH 10 0
BBX 9 16 0 0
BITMAP
0600
1800
1800
0000
0000
1800
1800
0000
FF80
FF80
C180
C180
C180
FF80
FF80
C180
ENDCHAR
STARTCHAR 01FC
ENCODING 508
SWIDTH 1020 0
DWIDTH 17 0
BBX 15 13 0 0
BITMAP
0180
0180
0600
0600
0000
FFFE
FFFE
C180
C1F8
C1F8
FF80
C1FE
C1FE
ENDCHAR
STARTCHAR 01FD
ENCODING 509
SWIDTH 1020 0
DWIDTH 17 0
BBX 15 13 0 0
BITMAP
0180
0180
0600
0600
0000
FFFE
FFFE
C180
C1F8
C1F8
FF80
C1FE
C1FE
ENDCHAR
STARTCHAR 01FE
ENCODING 510
SWIDTH 780 0
DWIDTH 13 0
BBX 12 15 0 -2
BITMAP
0180
0180
0600
0030
0030
0FC0
0FC0
31C0
3640
3640
3840
3F80
3F80
C000
C000
ENDCHAR
STARTCHAR 01FF
ENCODING 511
SWIDTH 780 0
DWIDTH 13 0
BBX 12 15 0 -2
BITMAP
0180
0180
0600
0030
0030
0FC0
0FC0
31C0
3640
3640
3840
3F80
3F80
C000
C000
ENDCHAR
STARTCHAR 02C6
ENCODING 710
SWIDTH 600 0
DWIDTH 10 0
BBX 5 3 2 10
BITMAP
20
D8
D8
ENDCHAR
STARTCHAR 02C7
ENCODING 711
SWIDTH 600 0
DWIDTH 10 0
BBX 5 3 2 10
BITMAP
D8
20
20
ENDCHAR
STARTCHAR 02C9
ENCODING 713
SWIDTH 600 0
DWIDTH 10 0
BBX 5 2 2 8
BITMAP
F8
F8
ENDCHAR
STARTCHAR 02D8
ENCODING 728
SWIDTH 600 0
DWIDTH 10 0
BBX 7 3 1 10
BITMAP
C6
38
38
ENDCHAR
STARTCHAR 02D9
ENCODING 729
SWIDTH 600 0
DWIDTH 10 0
BBX 2 2 3 10
BITMAP
C0
C0
ENDCHAR
STARTCHAR 02DA
ENCODING 730
SWIDTH 600 0
DWIDTH 10 0
BBX 2 2 3 10
BITMAP
C0
C0
ENDCHAR
STARTCHAR 02DB
ENCODING 731
SWIDTH 600 0
DWIDTH 10 0
BBX 5 5 3 -3
BITMAP
C0
C0
C0
38
38
ENDCHAR
STARTCHAR 02DC
ENCODING 732
SWIDTH 600 0
DWIDTH 10 0
BBX 7 3 1 8
BITMAP
36
C8
C8
ENDCHAR
STARTCHAR 02DD
ENCODING 733
SWIDTH 600 0
DWIDTH 10 0
BBX 9 3 0 10
BITMAP
3180
C600
C600
ENDCHAR
STARTCHAR 037E
ENCODING 894
SWIDTH 180 0
DWIDTH 3 0
BBX 2 9 0 -1
BITMAP
C0
C0
00
00
00
00
C0
C0
C0
ENDCHAR
STARTCHAR 0384
ENCODING 900
SWIDTH 300 0
DWIDTH 5 0
BBX 4 3 0 6
BITMAP
30
C0
C0
ENDCHAR
STARTCHAR 0385
ENCODING 901
SWIDTH 540 0
DWIDTH 9 0
BBX 9 3 0 10
BITMAP
0C00
F180
F180
ENDCHAR
STARTCHAR 0386
ENCODING 902
SWIDTH 780 0
DWIDTH 13 0
BBX 12 10 0 0
BITMAP
3000
3000
CFF0
CFF0
0830
0830
0830
0FF0
0FF0
0830
ENDCHAR
STARTCHAR 0387
ENCODING 903
SWIDTH 180 0
DWIDTH 3 0
BBX 2 2 0 8
BITMAP
C0
C0
ENDCHAR
STARTCHAR 0388
ENCODING 904
SWIDTH 780 0
DWIDTH 13 0
BBX 12 10 0 0
BITMAP
3000
3000
CFF0
CFF0
0800
0FC0
0FC0
0800
0FF0
0FF0
ENDCHAR
STARTCHAR 0389
ENCODING 905
SWIDTH 780 0
DWIDTH 13 0
BBX 12 10 0 0
BITMAP
3000
3000
C830
C830
0830
0FF0
0FF0
0830
0830
0830
ENDCHAR
STARTCHAR 038A
ENCODING 906
SWIDTH 840 0
DWIDTH 14 0
BBX 12 10 0 0
BITMAP
3000
3000
CFF0
CFF0
0180
0180
0180
0180
0FF0
0FF0
ENDCHAR
STARTCHAR 038C
ENCODING 908
SWIDTH 780 0
DWIDTH 13 0
BBX 12 10 0 0
BITMAP
3000
3000
C7C0
C7C0
0830
0830
0830
0830
07C0
07C0
ENDCHAR
STARTCHAR 038E
ENCODING 910
SWIDTH 780 0
DWIDTH 13 0
BBX 12 10 0 0
BITMAP
3000
3000
C830
C830
0830
0640
0640
0180
0180
0180
ENDCHAR
STARTCHAR 038F
ENCODING 911
SWIDTH 780 0
DWIDTH 13 0
BBX 12 10 0 0
BITMAP
37C0
37C0
C830
C830
0830
0830
0830
06C0
0EF0
0EF0
ENDCHAR
STARTCHAR 0390
ENCODING 912
SWIDTH 600 0
DWIDTH 10 0
BBX 9 13 0 0
BITMAP
0C00
0C00
F180
F180
0000
FF80
FF80
1800
1800
1800
1800
FF80
FF80
ENDCHAR
STARTCHAR 0391
ENCODING 913
SWIDTH 600 0
DWIDTH 10 0
BBX 9 8 0 0
BITMAP
FF80
FF80
C180
C180
C180
FF80
FF80
C180
ENDCHAR
STARTCHAR 0392
ENCODING 914
SWIDTH 600 0
DWIDTH 10 0
BBX 9 8 0 0
BITMAP
FF80
FF80
C180
FE00
FE00
C180
FF80
FF80
ENDCHAR
STARTCHAR 0393
ENCODING 915
SWIDTH 600 0
DWIDTH 10 0
BBX 9 8 0 0
BITMAP
FF80
FF80
C000
C000
C000
C000
C000
C000
ENDCHAR
STARTCHAR 0394
ENCODING 916
SWIDTH 600 0
DWIDTH 10 0
BBX 9 8 0 0
BITMAP
0800
0800
3600
3600
3600
C180
FF80
FF80
ENDCHAR
STARTCHAR 0395
ENCODING 917
SWIDTH 600 0
DWIDTH 10 0
BBX 9 8 0 0
BITMAP
FF80
FF80
C000
FE00
FE00
C000
FF80
FF80
ENDCHAR
STARTCHAR 0396
ENCODING 918
SWIDTH 600 0
DWIDTH 10 0
BBX 8 8 0 0
BITMAP
FF
FF
06
08
08
30
FF
FF
ENDCHAR
STARTCHAR 0397
ENCODING 919
SWIDTH 600 0
DWIDTH 10 0
BBX 9 8 0 0
BITMAP
C180
C180
C180
FF80
FF80
C180
C180
C180
ENDCHAR
STARTCHAR 0398
ENCODING 920
SWIDTH 600 0
DWIDTH 10 0
BBX 9 8 0 0
BITMAP
3E00
3E00
C180
FF80
FF80
C180
3E00
3E00
ENDCHAR
STARTCHAR 0399
ENCODING 921
SWIDTH 600 0
DWIDTH 10 0
BBX 8 8 0 0
BITMAP
FF
FF
18
18
18
18
FF
FF
ENDCHAR
STARTCHAR 039A
ENCODING 922
SWIDTH 600 0
DWIDTH 10 0
BBX 9 8 0 0
BITMAP
C180
C780
C600
F800
F800
C600
C180
C180
ENDCHAR
STARTCHAR 039B
ENCODING 923
SWIDTH 600 0
DWIDTH 10 0
BBX 9 8 0 0
BITMAP
0800
0800
3600
3600
3600
C180
C180
C180
ENDCHAR
STARTCHAR 039C
ENCODING 924
SWIDTH 600 0
DWIDTH 10 0
BBX 9 8 0 0
BITMAP
C180
E780
E780
D980
D980
C180
C180
C180
ENDCHAR
STARTCHAR 039D
ENCODING 925
SWIDTH 600 0
DWIDTH 10 0
BBX 9 8 0 0
BITMAP
C180
E180
E180
D980
D980
C780
C780
C180
ENDCHAR
STARTCHAR 039E
ENCODING 926
SWIDTH 600 0
DWIDTH 10 0
BBX 8 8 0 0
BITMAP
FF
FF
00
3E
3E
00
FF
FF
ENDCHAR
STARTCHAR 039F
ENCODING 927
SWIDTH 600 0
DWIDTH 10 0
BBX 9 8 0 0
BITMAP
3E00
3E00
C180
C180
C180
C180
3E00
3E00
ENDCHAR
STARTCHAR 03A0
ENCODING 928
SWIDTH 600 0
DWIDTH 10 0
BBX 9 8 0 0
BITMAP
FF80
FF80
C180
C180
C180
C180
C180
C180
ENDCHAR
STARTCHAR 03A1
ENCODING 929
SWIDTH 600 0
DWIDTH 10 0
BBX 9 8 0 0
BITMAP
FE00
FF80
C180
FE00
FE00
C000
C000
C000
ENDCHAR
STARTCHAR 03A3
ENCODING 931
SWIDTH 600 0
DWIDTH 10 0
BBX 8 8 0 0
BITMAP
FF
FF
30
08
08
30
FF
FF
ENDCHAR
STARTCHAR 03A4
ENCODING 932
SWIDTH 600 0
DWIDTH 10 0
BBX 8 8 0 0
BITMAP
FF
FF
18
18
18
18
18
18
ENDCHAR
STARTCHAR 03A5
ENCODING 933
SWIDTH 600 0
DWIDTH 10 0
BBX 9 8 0 0
BITMAP
C180
C180
C180
3600
3600
0800
0800
0800
ENDCHAR
STARTCHAR 03A6
ENCODING 934
SWIDTH 600 0
DWIDTH 10 0
BBX 9 8 0 0
BITMAP
1800
3E00
3E00
D980
D980
3E00
3E00
1800
ENDCHAR
STARTCHAR 03A7
ENCODING 935
SWIDTH 600 0
DWIDTH 10 0
BBX 9 8 0 0
BITMAP
C180
F780
3600
0800
0800
3600
C180
C180
ENDCHAR
STARTCHAR 03A8
ENCODING 936
SWIDTH 600 0
DWIDTH 10 0
BBX 9 8 0 0
BITMAP
D980
D980
D980
3E00
3E00
1800
1800
1800
ENDCHAR
STARTCHAR 03A9
ENCODING 937
SWIDTH 600 0
DWIDTH 10 0
BBX 9 10 0 0
BITMAP
3E00
3E00
C180
C180
C180
C180
C180
3600
F780
F780
ENDCHAR
STARTCHAR 03AA
ENCODING 938
SWIDTH 600 0
DWIDTH 10 0
BBX 8 11 0 0
BITMAP
36
36
00
FF
FF
08
08
08
08
FF
FF
ENDCHAR
STARTCHAR 03AB
ENCODING 939
SWIDTH 600 0
DWIDTH 10 0
BBX 9 11 0 0
BITMAP
3600
3600
0000
C180
C180
C180
3600
3600
0800
0800
0800
ENDCHAR
STARTCHAR 03AC
ENCODING 940
SWIDTH 780 0
DWIDTH 13 0
BBX 12 10 0 0
BITMAP
3000
3000
CFF0
CFF0
0830
0830
0830
0FF0
0FF0
0830
ENDCHAR
STARTCHAR 03AD
ENCODING 941
SWIDTH 780 0
DWIDTH 13 0
BBX 12 10 0 0
BITMAP
3000
3000
CFF0
CFF0
0800
0FC0
0FC0
0800
0FF0
0FF0
ENDCHAR
STARTCHAR 03AE
ENCODING 942
SWIDTH 780 0
DWIDTH 13 0
BBX 12 10 0 0
BITMAP
3000
3000
C830
C830
0830
0FF0
0FF0
0830
0830
0830
ENDCHAR
STARTCHAR 03AF
ENCODING 943
SWIDTH 840 0
DWIDTH 14 0
BBX 12 10 0 0
BITMAP
3000
3000
CFF0
CFF0
0180
0180
0180
0180
0FF0
0FF0
ENDCHAR
STARTCHAR 03B0
ENCODING 944
SWIDTH 600 0
DWIDTH 10 0
BBX 9 13 0 0
BITMAP
0C00
0C00
F180
F180
0000
C180
C180
C180
C180
C180
C180
FF80
FF80
ENDCHAR
STARTCHAR 03B1
ENCODING 945
SWIDTH 600 0
DWIDTH 10 0
BBX 9 8 0 0
BITMAP
FF80
FF80
C180
C180
C180
FF80
FF80
C180
ENDCHAR
STARTCHAR 03B2
ENCODING 946
SWIDTH 600 0
DWIDTH 10 0
BBX 9 8 0 0
BITMAP
FF80
FF80
C180
FE00
FE00
C180
FF80
FF80
ENDCHAR
STARTCHAR 03B3
ENCODING 947
SWIDTH 600 0
DWIDTH 10 0
BBX 9 8 0 0
BITMAP
FF80
FF80
C000
C000
C000
C000
C000
C000
ENDCHAR
STARTCHAR 03B4
ENCODING 948
SWIDTH 600 0
DWIDTH 10 0
BBX 9 8 0 0
BITMAP
0800
0800
3600
3600
3600
C180
FF80
FF80
ENDCHAR
STARTCHAR 03B5
ENCODING 949
SWIDTH 600 0
DWIDTH 10 0
BBX 9 8 0 0
BITMAP
FF80
FF80
C000
FE00
FE00
C000
FF80
FF80
ENDCHAR
STARTCHAR 03B6
ENCODING 950
SWIDTH 600 0
DWIDTH 10 0
BBX 8 8 0 0
BITMAP
FF
FF
06
08
08
30
FF
FF
ENDCHAR
STARTCHAR 03B7
ENCODING 951
SWIDTH 600 0
DWIDTH 10 0
BBX 9 8 0 0
BITMAP
C180
C180
C180
FF80
FF80
C180
C180
C180
ENDCHAR
STARTCHAR 03B8
ENCODING 952
SWIDTH 600 0
DWIDTH 10 0
BBX 9 8 0 0
BITMAP
3E00
3E00
C180
FF80
FF80
C180
3E00
3E00
ENDCHAR
STARTCHAR 03B9
ENCODING 953
SWIDTH 600 0
DWIDTH 10 0
BBX 8 8 0 0
BITMAP
FF
FF
18
18
18
18
FF
FF
ENDCHAR
STARTCHAR 03BA
ENCODING 954
SWIDTH 600 0
DWIDTH 10 0
BBX 9 8 0 0
BITMAP
C180
C780
C600
F800
F800
C600
C180
C180
ENDCHAR
STARTCHAR 03BB
ENCODING 955
SWIDTH 600 0
DWIDTH 10 0
BBX 9 8 0 0
BITMAP
0800
0800
3600
3600
3600
C180
C180
C180
ENDCHAR
STARTCHAR 03BC
ENCODING 956
SWIDTH 600 0
DWIDTH 10 0
BBX 9 8 0 0
BITMAP
C180
E780
E780
D980
D980
C180
C180
C180
ENDCHAR
STARTCHAR 03BD
ENCODING 957
SWIDTH 600 0
DWIDTH 10 0
BBX 9 8 0 0
BITMAP
C180
E180
E180
D980
D980
C780
C780
C180
ENDCHAR
STARTCHAR 03BE
ENCODING 958
SWIDTH 600 0
DWIDTH 10 0
BBX 8 8 0 0
BITMAP
FF
FF
00
3E
3E
00
FF
FF
ENDCHAR
STARTCHAR 03BF
ENCODING 959
SWIDTH 600 0
DWIDTH 10 0
BBX 9 8 0 0
BITMAP
3E00
3E00
C180
C180
C180
C180
3E00
3E00
ENDCHAR
STARTCHAR 03C0
ENCODING 960
SWIDTH 600 0
DWIDTH 10 0
BBX 9 8 0 0
BITMAP
FF80
FF80
C180
C180
C180
C180
C180
C180
ENDCHAR
STARTCHAR 03C1
ENCODING 961
SWIDTH 600 0
DWIDTH 10 0
BBX 9 8 0 0
BITMAP
FE00
FF80
C180
FE00
FE00
C000
C000
C000
ENDCHAR
STARTCHAR 03C2
ENCODING 962
SWIDTH 600 0
DWIDTH 10 0
BBX 8 8 0 0
BITMAP
FF
FF
30
08
08
30
FF
FF
ENDCHAR
STARTCHAR 03C3
ENCODING 963
SWIDTH 600 0
DWIDTH 10 0
BBX 8 8 0 0
BITMAP
FF
FF
30
08
08
30
FF
FF
ENDCHAR
STARTCHAR 03C4
ENCODING 964
SWIDTH 600 0
DWIDTH 10 0
BBX 8 8 0 0
BITMAP
FF
FF
18
18
18
18
18
18
ENDCHAR
STARTCHAR 03C5
ENCODING 965
SWIDTH 600 0
DWIDTH 10 0
BBX 9 8 0 0
BITMAP
C180
C180
C180
3600
3600
0800
0800
0800
ENDCHAR
STARTCHAR 03C6
ENCODING 966
SWIDTH 600 0
DWIDTH 10 0
BBX 9 8 0 0
BITMAP
1800
3E00
3E00
D980
D980
3E00
3E00
1800
ENDCHAR
STARTCHAR 03C7
ENCODING 967
SWIDTH 600 0
DWIDTH 10 0
BBX 9 8 0 0
BITMAP
C180
F780
3600
0800
0800
3600
C180
C180
ENDCHAR
STARTCHAR 03C8
ENCODING 968
SWIDTH 600 0
DWIDTH 10 0
BBX 9 8 0 0
BITMAP
D980
D980
D980
3E00
3E00
1800
1800
1800
ENDCHAR
STARTCHAR 03C9
ENCODING 969
SWIDTH 600 0
DWIDTH 10 0
BBX 9 10 0 0
BITMAP
3E00
3E00
C180
C180
C180
C180
C180
3600
F780
F780
ENDCHAR
STARTCHAR 03CA
ENCODING 970
SWIDTH 600 0
DWIDTH 10 0
BBX 8 11 0 0
BITMAP
36
36
00
FF
FF
08
08
08
08
FF
FF
ENDCHAR
STARTCHAR 03CB
ENCODING 971
SWIDTH 600 0
DWIDTH 10 0
BBX 9 11 0 0
BITMAP
3600
3600
0000
C180
C180
C180
3600
3600
0800
0800
0800
ENDCHAR
STARTCHAR 03CC
ENCODING 972
SWIDTH 780 0
DWIDTH 13 0
BBX 12 10 0 0
BITMAP
3000
3000
C7C0
C7C0
0830
0830
0830
0830
07C0
07C0
ENDCHAR
STARTCHAR 03CD
ENCODING 973
SWIDTH 780 0
DWIDTH 13 0
BBX 12 10 0 0
BITMAP
3000
3000
C830
C830
0830
0640
0640
0180
0180
0180
ENDCHAR
STARTCHAR 03CE
ENCODING 974
SWIDTH 780 0
DWIDTH 13 0
BBX 12 10 0 0
BITMAP
37C0
37C0
C830
C830
0830
0830
0830
06C0
0EF0
0EF0
ENDCHAR
STARTCHAR 0401
ENCODING 1025
SWIDTH 600 0
DWIDTH 10 0
BBX 9 11 0 0
BITMAP
3600
3600
0000
FF80
FF80
C000
FE00
FE00
C000
FF80
FF80
ENDCHAR
STARTCHAR 0402
ENCODING 1026
SWIDTH 780 0
DWIDTH 13 0
BBX 12 10 0 0
BITMAP
FF00
FF00
1800
1800
1800
1FC0
1FC0
1830
1830
1830
ENDCHAR
STARTCHAR 0403
ENCODING 1027
SWIDTH 600 0
DWIDTH 10 0
BBX 9 13 0 0
BITMAP
0600
0600
1800
1800
0000
FF80
FF80
C000
C000
C000
C000
C000
C000
ENDCHAR
STARTCHAR 0404
ENCODING 1028
SWIDTH 600 0
DWIDTH 10 0
BBX 8 8 0 0
BITMAP
3F
3F
C0
FC
FC
C0
3F
3F
ENDCHAR
STARTCHAR 0405
ENCODING 1029
SWIDTH 600 0
DWIDTH 10 0
BBX 9 8 0 0
BITMAP
FF80
FF80
C000
FF80
FF80
0180
FF80
FF80
ENDCHAR
STARTCHAR 0406
ENCODING 1030
SWIDTH 180 0
DWIDTH 3 0
BBX 2 8 0 0
BITMAP
C0
C0
C0
C0
C0
C0
C0
C0
ENDCHAR
STARTCHAR 0407
ENCODING 1031
SWIDTH 420 0
DWIDTH 7 0
BBX 5 11 0 0
BITMAP
C8
C8
00
30
30
30
30
30
30
30
30
ENDCHAR
STARTCHAR 0408
ENCODING 1032
SWIDTH 600 0
DWIDTH 10 0
BBX 9 8 0 0
BITMAP
0180
0180
0180
0180
C180
C180
3E00
3E00
ENDCHAR
STARTCHAR 0409
ENCODING 1033
SWIDTH 1140 0
DWIDTH 19 0
BBX 17 8 0 0
BITMAP
3FE000
3FE000
306000
307E00
307E00
306180
F07E00
F07E00
ENDCHAR
STARTCHAR 040A
ENCODING 1034
SWIDTH 1020 0
DWIDTH 17 0
BBX 15 8 0 0
BITMAP
C180
C180
C180
FFF8
FFF8
C186
C1F8
C1F8
ENDCHAR
STARTCHAR 040B
ENCODING 1035
SWIDTH 780 0
DWIDTH 13 0
BBX 12 10 0 0
BITMAP
FF00
FF00
1800
1800
1800
1FC0
1FC0
1830
1830
1830
ENDCHAR
STARTCHAR 040C
ENCODING 1036
SWIDTH 600 0
DWIDTH 10 0
BBX 9 13 0 0
BITMAP
0600
0600
1800
1800
0000
C180
C780
C600
F800
F800
C600
C180
C180
ENDCHAR
STARTCHAR 040E
ENCODING 1038
SWIDTH 600 0
DWIDTH 10 0
BBX 9 13 0 0
BITMAP
6300
6300
1C00
1C00
0000
C180
C180
C180
3600
3600
0800
0800
0800
ENDCHAR
STARTCHAR 040F
ENCODING 1039
SWIDTH 600 0
DWIDTH 10 0
BBX 8 8 0 0
BITMAP
C1
C1
C1
C1
C1
FF
FF
18
ENDCHAR
STARTCHAR 0410
ENCODING 1040
SWIDTH 600 0
DWIDTH 10 0
BBX 9 8 0 0
BITMAP
FF80
FF80
C180
C180
C180
FF80
FF80
C180
ENDCHAR
STARTCHAR 0411
ENCODING 1041
SWIDTH 600 0
DWIDTH 10 0
BBX 9 8 0 0
BITMAP
FE00
FE00
C000
FE00
FE00
C180
FE00
FE00
ENDCHAR
STARTCHAR 0412
ENCODING 1042
SWIDTH 600 0
DWIDTH 10 0
BBX 9 8 0 0
BITMAP
FF80
FF80
C180
FE00
FE00
C180
FF80
FF80
ENDCHAR
STARTCHAR 0413
ENCODING 1043
SWIDTH 600 0
DWIDTH 10 0
BBX 9 8 0 0
BITMAP
FF80
FF80
C000
C000
C000
C000
C000
C000
ENDCHAR
STARTCHAR 0414
ENCODING 1044
SWIDTH 600 0
DWIDTH 10 0
BBX 9 8 0 0
BITMAP
3E00
3E00
3600
C600
C600
FF80
FF80
C180
ENDCHAR
STARTCHAR 0415
ENCODING 1045
SWIDTH 600 0
DWIDTH 10 0
BBX 9 8 0 0
BITMAP
FF80
FF80
C000
FE00
FE00
C000
FF80
FF80
ENDCHAR
STARTCHAR 0416
ENCODING 1046
SWIDTH 600 0
DWIDTH 10 0
BBX 9 8 0 0
BITMAP
D980
D980
D980
3E00
3E00
D980
D980
D980
ENDCHAR
STARTCHAR 0417
ENCODING 1047
SWIDTH 600 0
DWIDTH 10 0
BBX 9 8 0 0
BITMAP
FF80
FF80
0180
3E00
3E00
0180
FF80
FF80
ENDCHAR
STARTCHAR 0418
ENCODING 1048
SWIDTH 600 0
DWIDTH 10 0
BBX 9 8 0 0
BITMAP
C180
C780
C780
D980
D980
E180
E180
C180
ENDCHAR
STARTCHAR 0419
ENCODING 1049
SWIDTH 600 0
DWIDTH 10 0
BBX 9 13 0 0
BITMAP
6300
6300
1C00
1C00
0000
C180
C780
C780
D980
D980
E180
E180
C180
ENDCHAR
STARTCHAR 041A
ENCODING 1050
SWIDTH 600 0
DWIDTH 10 0
BBX 9 8 0 0
BITMAP
C180
C780
C600
F800
F800
C600
C180
C180
ENDCHAR
STARTCHAR 041B
ENCODING 1051
SWIDTH 720 0
DWIDTH 12 0
BBX 11 8 0 0
BITMAP
3FE0
3FE0
3060
3060
3060
3060
F060
F060
ENDCHAR
STARTCHAR 041C
ENCODING 1052
SWIDTH 600 0
DWIDTH 10 0
BBX 9 8 0 0
BITMAP
C180
E780
E780
D980
D980
C180
C180
C180
ENDCHAR
STARTCHAR 041D
ENCODING 1053
SWIDTH 600 0
DWIDTH 10 0
BBX 9 8 0 0
BITMAP
C180
C180
C180
FF80
FF80
C180
C180
C180
ENDCHAR
STARTCHAR 041E
ENCODING 1054
SWIDTH 600 0
DWIDTH 10 0
BBX 9 8 0 0
BITMAP
3E00
3E00
C180
C180
C180
C180
3E00
3E00
ENDCHAR
STARTCHAR 041F
ENCODING 1055
SWIDTH 600 0
DWIDTH 10 0
BBX 9 8 0 0
BITMAP
FF80
FF80
C180
C180
C180
C180
C180
C180
ENDCHAR
STARTCHAR 0420
ENCODING 1056
SWIDTH 600 0
DWIDTH 10 0
BBX 9 8 0 0
BITMAP
FE00
FF80
C180
FE00
FE00
C000
C000
C000
ENDCHAR
STARTCHAR 0421
ENCODING 1057
SWIDTH 600 0
DWIDTH 10 0
BBX 8 8 0 0
BITMAP
3F
3F
C0
C0
C0
C0
3F
3F
ENDCHAR
STARTCHAR 0422
ENCODING 1058
SWIDTH 600 0
DWIDTH 10 0
BBX 8 8 0 0
BITMAP
FF
FF
18
18
18
18
18
18
ENDCHAR
STARTCHAR 0423
ENCODING 1059
SWIDTH 600 0
DWIDTH 10 0
BBX 9 8 0 0
BITMAP
C180
C180
C180
3600
3600
0800
0800
0800
ENDCHAR
STARTCHAR 0424
ENCODING 1060
SWIDTH 600 0
DWIDTH 10 0
BBX 9 8 0 0
BITMAP
1800
3E00
3E00
D980
D980
3E00
3E00
1800
ENDCHAR
STARTCHAR 0425
ENCODING 1061
SWIDTH 600 0
DWIDTH 10 0
BBX 9 8 0 0
BITMAP
C180
F780
3600
0800
0800
3600
C180
C180
ENDCHAR
STARTCHAR 0426
ENCODING 1062
SWIDTH 720 0
DWIDTH 12 0
BBX 10 9 0 -1
BITMAP
C180
C180
C180
C180
C180
C180
FFC0
FFC0
0040
ENDCHAR
STARTCHAR 0427
ENCODING 1063
SWIDTH 600 0
DWIDTH 10 0
BBX 9 8 0 0
BITMAP
C180
C180
C180
FF80
FF80
0180
0180
0180
ENDCHAR
STARTCHAR 0428
ENCODING 1064
SWIDTH 1500 0
DWIDTH 25 0
BBX 8 8 0 0
BITMAP
D9
D9
D9
D9
D9
D9
FF
FF
ENDCHAR
STARTCHAR 0429
ENCODING 1065
SWIDTH 720 0
DWIDTH 12 0
BBX 10 9 0 -1
BITMAP
D980
D980
D980
D980
D980
D980
FFC0
FFC0
0040
ENDCHAR
STARTCHAR 042A
ENCODING 1066
SWIDTH 840 0
DWIDTH 14 0
BBX 12 8 0 0
BITMAP
FC00
FC00
0C00
0FC0
0FC0
0C30
0FC0
0FC0
ENDCHAR
STARTCHAR 042B
ENCODING 1067
SWIDTH 780 0
DWIDTH 13 0
BBX 12 8 0 0
BITMAP
C030
C030
C030
FE30
FE30
C1B0
FE30
FE30
ENDCHAR
STARTCHAR 042C
ENCODING 1068
SWIDTH 600 0
DWIDTH 10 0
BBX 9 8 0 0
BITMAP
C000
C000
C000
FE00
FE00
C180
FE00
FE00
ENDCHAR
STARTCHAR 042D
ENCODING 1069
SWIDTH 600 0
DWIDTH 10 0
BBX 9 8 0 0
BITMAP
FE00
FE00
0180
3F80
3F80
0180
FE00
FE00
ENDCHAR
STARTCHAR 042E
ENCODING 1070
SWIDTH 780 0
DWIDTH 13 0
BBX 12 8 0 0
BITMAP
C7C0
C7C0
D830
F830
F830
D830
C7C0
C7C0
ENDCHAR
STARTCHAR 042F
ENCODING 1071
SWIDTH 600 0
DWIDTH 10 0
BBX 9 8 0 0
BITMAP
3F80
FF80
C180
3F80
3F80
C180
C180
C180
ENDCHAR
STARTCHAR 0430
ENCODING 1072
SWIDTH 600 0
DWIDTH 10 0
BBX 9 8 0 0
BITMAP
FF80
FF80
C180
C180
C180
FF80
FF80
C180
ENDCHAR
STARTCHAR 0431
ENCODING 1073
SWIDTH 600 0
DWIDTH 10 0
BBX 9 8 0 0
BITMAP
FE00
FE00
C000
FE00
FE00
C180
FE00
FE00
ENDCHAR
STARTCHAR 0432
ENCODING 1074
SWIDTH 600 0
DWIDTH 10 0
BBX 9 8 0 0
BITMAP
FF80
FF80
C180
FE00
FE00
C180
FF80
FF80
ENDCHAR
STARTCHAR 0433
ENCODING 1075
SWIDTH 600 0
DWIDTH 10 0
BBX 9 8 0 0
BITMAP
FF80
FF80
C000
C000
C000
C000
C000
C000
ENDCHAR
STARTCHAR 0434
ENCODING 1076
SWIDTH 600 0
DWIDTH 10 0
BBX 9 8 0 0
BITMAP
3E00
3E00
3600
C600
C600
FF80
FF80
C180
ENDCHAR
STARTCHAR 0435
ENCODING 1077
SWIDTH 600 0
DWIDTH 10 0
BBX 8 8 0 0
BITMAP
3F
3F
C0
FC
FC
C0
3F
3F
ENDCHAR
STARTCHAR 0436
ENCODING 1078
SWIDTH 600 0
DWIDTH 10 0
BBX 9 8 0 0
BITMAP
D980
D980
D980
3E00
3E00
D980
D980
D980
ENDCHAR
STARTCHAR 0437
ENCODING 1079
SWIDTH 600 0
DWIDTH 10 0
BBX 9 8 0 0
BITMAP
FF80
FF80
0180
3E00
3E00
0180
FF80
FF80
ENDCHAR
STARTCHAR 0438
ENCODING 1080
SWIDTH 600 0
DWIDTH 10 0
BBX 9 8 0 0
BITMAP
C180
C780
C780
D980
D980
E180
E180
C180
ENDCHAR
STARTCHAR 0439
ENCODING 1081
SWIDTH 600 0
DWIDTH 10 0
BBX 9 13 0 0
BITMAP
6300
6300
1C00
1C00
0000
C180
C780
C780
D980
D980
E180
E180
C180
ENDCHAR
STARTCHAR 043A
ENCODING 1082
SWIDTH 600 0
DWIDTH 10 0
BBX 9 8 0 0
BITMAP
C180
C780
C600
F800
F800
C600
C180
C180
ENDCHAR
STARTCHAR 043B
ENCODING 1083
SWIDTH 720 0
DWIDTH 12 0
BBX 11 8 0 0
BITMAP
3FE0
3FE0
3060
3060
3060
3060
F060
F060
ENDCHAR
STARTCHAR 043C
ENCODING 1084
SWIDTH 600 0
DWIDTH 10 0
BBX 9 8 0 0
BITMAP
C180
E780
E780
D980
D980
C180
C180
C180
ENDCHAR
STARTCHAR 043D
ENCODING 1085
SWIDTH 600 0
DWIDTH 10 0
BBX 9 8 0 0
BITMAP
C180
C180
C180
FF80
FF80
C180
C180
C180
ENDCHAR
STARTCHAR 043E
ENCODING 1086
SWIDTH 600 0
DWIDTH 10 0
BBX 9 8 0 0
BITMAP
3E00
3E00
C180
C180
C180
C180
3E00
3E00
ENDCHAR
STARTCHAR 043F
ENCODING 1087
SWIDTH 600 0
DWIDTH 10 0
BBX 9 8 0 0
BITMAP
FF80
FF80
C180
C180
C180
C180
C180
C180
ENDCHAR
STARTCHAR 0440
ENCODING 1088
SWIDTH 600 0
DWIDTH 10 0
BBX 9 8 0 0
BITMAP
FE00
FF80
C180
FE00
FE00
C000
C000
C000
ENDCHAR
STARTCHAR 0441
ENCODING 1089
SWIDTH 600 0
DWIDTH 10 0
BBX 8 8 0 0
BITMAP
3F
3F
C0
C0
C0
C0
3F
3F
ENDCHAR
STARTCHAR 0442
ENCODING 1090
SWIDTH 600 0
DWIDTH 10 0
BBX 8 8 0 0
BITMAP
FF
FF
18
18
18
18
18
18
ENDCHAR
STARTCHAR 0443
ENCODING 1091
SWIDTH 600 0
DWIDTH 10 0
BBX 9 8 0 0
BITMAP
C180
C180
C180
3600
3600
0800
0800
0800
ENDCHAR
STARTCHAR 0444
ENCODING 1092
SWIDTH 600 0
DWIDTH 10 0
BBX 9 8 0 0
BITMAP
1800
3E00
3E00
D980
D980
3E00
3E00
1800
ENDCHAR
STARTCHAR 0445
ENCODING 1093
SWIDTH 600 0
DWIDTH 10 0
BBX 9 8 0 0
BITMAP
C180
F780
3600
0800
0800
3600
C180
C180
ENDCHAR
STARTCHAR 0446
ENCODING 1094
SWIDTH 720 0
DWIDTH 12 0
BBX 10 9 0 -1
BITMAP
C180
C180
C180
C180
C180
C180
FFC0
FFC0
0040
ENDCHAR
STARTCHAR 0447
ENCODING 1095
SWIDTH 600 0
DWIDTH 10 0
BBX 9 8 0 0
BITMAP
C180
C180
C180
FF80
FF80
0180
0180
0180
ENDCHAR
STARTCHAR 0448
ENCODING 1096
SWIDTH 600 0
DWIDTH 10 0
BBX 8 8 0 0
BITMAP
D9
D9
D9
D9
D9
D9
FF
FF
ENDCHAR
STARTCHAR 0449
ENCODING 1097
SWIDTH 720 0
DWIDTH 12 0
BBX 10 9 0 -1
BITMAP
D980
D980
D980
D980
D980
D980
FFC0
FFC0
0040
ENDCHAR
STARTCHAR 044A
ENCODING 1098
SWIDTH 840 0
DWIDTH 14 0
BBX 12 8 0 0
BITMAP
FC00
FC00
0C00
0FC0
0FC0
0C30
0FC0
0FC0
ENDCHAR
STARTCHAR 044B
ENCODING 1099
SWIDTH 780 0
DWIDTH 13 0
BBX 12 8 0 0
BITMAP
C030
C030
C030
FE30
FE30
C1B0
FE30
FE30
ENDCHAR
STARTCHAR 044C
ENCODING 1100
SWIDTH 600 0
DWIDTH 10 0
BBX 9 8 0 0
BITMAP
C000
C000
C000
FE00
FE00
C180
FE00
FE00
ENDCHAR
STARTCHAR 044D
ENCODING 1101
SWIDTH 600 0
DWIDTH 10 0
BBX 9 8 0 0
BITMAP
FE00
FE00
0180
3F80
3F80
0180
FE00
FE00
ENDCHAR
STARTCHAR 044E
ENCODING 1102
SWIDTH 780 0
DWIDTH 13 0
BBX 12 8 0 0
BITMAP
C7C0
C7C0
D830
F830
F830
D830
C7C0
C7C0
ENDCHAR
STARTCHAR 044F
ENCODING 1103
SWIDTH 600 0
DWIDTH 10 0
BBX 9 8 0 0
BITMAP
3F80
FF80
C180
3F80
3F80
C180
C180
C180
ENDCHAR
STARTCHAR 0451
ENCODING 1105
SWIDTH 600 0
DWIDTH 10 0
BBX 9 11 0 0
BITMAP
3600
3600
0000
FF80
FF80
C000
FE00
FE00
C000
FF80
FF80
ENDCHAR
STARTCHAR 0452
ENCODING 1106
SWIDTH 720 0
DWIDTH 12 0
BBX 10 13 0 -2
BITMAP
3000
F800
F800
3000
3000
3000
3FC0
3FC0
3040
3040
3040
0180
0180
ENDCHAR
STARTCHAR 0453
ENCODING 1107
SWIDTH 600 0
DWIDTH 10 0
BBX 9 13 0 0
BITMAP
0600
0600
1800
1800
0000
FF80
FF80
C000
C000
C000
C000
C000
C000
ENDCHAR
STARTCHAR 0454
ENCODING 1108
SWIDTH 600 0
DWIDTH 10 0
BBX 8 8 0 0
BITMAP
3F
3F
C0
FC
FC
C0
3F
3F
ENDCHAR
STARTCHAR 0455
ENCODING 1109
SWIDTH 600 0
DWIDTH 10 0
BBX 9 8 0 0
BITMAP
FF80
FF80
C000
FF80
FF80
0180
FF80
FF80
ENDCHAR
STARTCHAR 0456
ENCODING 1110
SWIDTH 180 0
DWIDTH 3 0
BBX 2 8 0 0
BITMAP
C0
C0
C0
C0
C0
C0
C0
C0
ENDCHAR
STARTCHAR 0457
ENCODING 1111
SWIDTH 420 0
DWIDTH 7 0
BBX 5 11 0 0
BITMAP
C8
C8
00
30
30
30
30
30
30
30
30
ENDCHAR
STARTCHAR 0458
ENCODING 1112
SWIDTH 600 0
DWIDTH 10 0
BBX 9 8 0 0
BITMAP
0180
0180
0180
0180
C180
C180
3E00
3E00
ENDCHAR
STARTCHAR 0459
ENCODING 1113
SWIDTH 1140 0
DWIDTH 19 0
BBX 17 8 0 0
BITMAP
3FE000
3FE000
306000
307E00
307E00
306180
F07E00
F07E00
ENDCHAR
STARTCHAR 045A
ENCODING 1114
SWIDTH 1020 0
DWIDTH 17 0
BBX 15 8 0 0
BITMAP
C180
C180
C180
FFF8
FFF8
C186
C1F8
C1F8
ENDCHAR
STARTCHAR 045B
ENCODING 1115
SWIDTH 720 0
DWIDTH 12 0
BBX 10 13 0 -2
BITMAP
3000
F800
F800
3000
3000
3000
3FC0
3FC0
3040
3040
3040
0180
0180
ENDCHAR
STARTCHAR 045C
ENCODING 1116
SWIDTH 600 0
DWIDTH 10 0
BBX 9 13 0 0
BITMAP
0600
0600
1800
1800
0000
C180
C780
C600
F800
F800
C600
C180
C180
ENDCHAR
STARTCHAR 045E
ENCODING 1118
SWIDTH 600 0
DWIDTH 10 0
BBX 9 13 0 0
BITMAP
6300
6300
1C00
1C00
0000
C180
C180
C180
3600
3600
0800
0800
0800
ENDCHAR
STARTCHAR 045F
ENCODING 1119
SWIDTH 600 0
DWIDTH 10 0
BBX 8 8 0 0
BITMAP
C1
C1
C1
C1
C1
FF
FF
18
ENDCHAR
STARTCHAR 0490
ENCODING 1168
SWIDTH 600 0
DWIDTH 10 0
BBX 9 11 0 0
BITMAP
0180
0180
0180
FF80
FF80
C000
C000
C000
C000
C000
C000
ENDCHAR
STARTCHAR 0491
ENCODING 1169
SWIDTH 600 0
DWIDTH 10 0
BBX 9 11 0 0
BITMAP
0180
0180
0180
FF80
FF80
C000
C000
C000
C000
C000
C000
ENDCHAR
STARTCHAR 1E80
ENCODING 7808
SWIDTH 600 0
DWIDTH 10 0
BBX 9 13 0 0
BITMAP
3000
3000
0800
0800
0000
C180
C180
C180
C980
C980
C980
3600
3600
ENDCHAR
STARTCHAR 1E81
ENCODING 7809
SWIDTH 600 0
DWIDTH 10 0
BBX 9 13 0 0
BITMAP
3000
3000
0800
0800
0000
C180
C180
C180
C980
C980
C980
3600
3600
ENDCHAR
STARTCHAR 1E82
ENCODING 7810
SWIDTH 600 0
DWIDTH 10 0
BBX 9 13 0 0
BITMAP
0600
0600
0800
0800
0000
C180
C180
C180
C980
C980
C980
3600
3600
ENDCHAR
STARTCHAR 1E83
ENCODING 7811
SWIDTH 600 0
DWIDTH 10 0
BBX 9 13 0 0
BITMAP
0600
0600
0800
0800
0000
C180
C180
C180
C980
C980
C980
3600
3600
ENDCHAR
STARTCHAR 1E84
ENCODING 7812
SWIDTH 600 0
DWIDTH 10 0
BBX 9 11 0 0
BITMAP
3600
3600
0000
C180
C180
C180
C980
C980
C980
3600
3600
ENDCHAR
STARTCHAR 1E85
ENCODING 7813
SWIDTH 600 0
DWIDTH 10 0
BBX 9 11 0 0
BITMAP
3600
3600
0000
C180
C180
C180
C980
C980
C980
3600
3600
ENDCHAR
STARTCHAR 1EF2
ENCODING 7922
SWIDTH 600 0
DWIDTH 10 0
BBX 9 13 0 0
BITMAP
3000
3000
0800
0800
0000
C180
C180
C180
3600
3600
0800
0800
0800
ENDCHAR
STARTCHAR 1EF3
ENCODING 7923
SWIDTH 600 0
DWIDTH 10 0
BBX 9 13 0 0
BITMAP
3000
3000
0800
0800
0000
C180
C180
C180
3600
3600
0800
0800
0800
ENDCHAR
STARTCHAR 2013
ENCODING 8211
SWIDTH 840 0
DWIDTH 14 0
BBX 12 2 0 3
BITMAP
FFF0
FFF0
ENDCHAR
STARTCHAR 2014
ENCODING 8212
SWIDTH 1080 0
DWIDTH 18 0
BBX 17 2 0 3
BITMAP
FFFF80
FFFF80
ENDCHAR
STARTCHAR 2015
ENCODING 8213
SWIDTH 840 0
DWIDTH 14 0
BBX 12 2 0 3
BITMAP
FFF0
FFF0
ENDCHAR
STARTCHAR 2017
ENCODING 8215
SWIDTH 600 0
DWIDTH 10 0
BBX 8 2 0 -2
BITMAP
FF
FF
ENDCHAR
STARTCHAR 2018
ENCODING 8216
SWIDTH 180 0
DWIDTH 3 0
BBX 2 3 0 6
BITMAP
C0
C0
C0
ENDCHAR
STARTCHAR 2019
ENCODING 8217
SWIDTH 180 0
DWIDTH 3 0
BBX 2 3 0 6
BITMAP
C0
C0
C0
ENDCHAR
STARTCHAR 201A
ENCODING 8218
SWIDTH 180 0
DWIDTH 3 0
BBX 2 3 0 -2
BITMAP
C0
C0
C0
ENDCHAR
STARTCHAR 201B
ENCODING 8219
SWIDTH 300 0
DWIDTH 5 0
BBX 4 3 0 8
BITMAP
C0
30
30
ENDCHAR
STARTCHAR 201C
ENCODING 8220
SWIDTH 420 0
DWIDTH 7 0
BBX 5 3 0 6
BITMAP
D8
D8
D8
ENDCHAR
STARTCHAR 201D
ENCODING 8221
SWIDTH 420 0
DWIDTH 7 0
BBX 5 3 0 6
BITMAP
D8
D8
D8
ENDCHAR
STARTCHAR 201E
ENCODING 8222
SWIDTH 420 0
DWIDTH 7 0
BBX 5 3 0 -2
BITMAP
D8
D8
D8
ENDCHAR
STARTCHAR 2020
ENCODING 8224
SWIDTH 600 0
DWIDTH 10 0
BBX 8 11 0 0
BITMAP
18
FF
FF
18
18
18
18
18
18
18
18
ENDCHAR
STARTCHAR 2021
ENCODING 8225
SWIDTH 600 0
DWIDTH 10 0
BBX 8 11 0 0
BITMAP
18
FF
FF
18
18
18
18
18
FF
FF
18
ENDCHAR
STARTCHAR 2022
ENCODING 8226
SWIDTH 480 0
DWIDTH 8 0
BBX 3 3 3 3
BITMAP
E0
E0
E0
ENDCHAR
STARTCHAR 2026
ENCODING 8230
SWIDTH 780 0
DWIDTH 13 0
BBX 12 2 0 0
BITMAP
C630
C630
ENDCHAR
STARTCHAR 2030
ENCODING 8240
SWIDTH 780 0
DWIDTH 13 0
BBX 11 8 0 0
BITMAP
C300
C700
0600
0800
0800
3000
C320
C320
ENDCHAR
STARTCHAR 2032
ENCODING 8242
SWIDTH 180 0
DWIDTH 3 0
BBX 2 3 0 8
BITMAP
C0
C0
C0
ENDCHAR
STARTCHAR 2033
ENCODING 8243
SWIDTH 420 0
DWIDTH 7 0
BBX 5 3 0 8
BITMAP
D8
D8
D8
ENDCHAR
STARTCHAR 2039
ENCODING 8249
SWIDTH 420 0
DWIDTH 7 0
BBX 5 11 0 0
BITMAP
08
08
30
30
C0
C0
30
30
30
08
08
ENDCHAR
STARTCHAR 203A
ENCODING 8250
SWIDTH 420 0
DWIDTH 7 0
BBX 5 11 0 0
BITMAP
C0
C0
30
30
08
08
30
30
30
C0
C0
ENDCHAR
STARTCHAR 203C
ENCODING 8252
SWIDTH 420 0
DWIDTH 7 0
BBX 5 8 0 0
BITMAP
D8
D8
D8
D8
D8
00
D8
D8
ENDCHAR
STARTCHAR 203E
ENCODING 8254
SWIDTH 600 0
DWIDTH 10 0
BBX 8 2 0 8
BITMAP
FF
FF
ENDCHAR
STARTCHAR 2044
ENCODING 8260
SWIDTH 600 0
DWIDTH 10 0
BBX 9 8 0 0
BITMAP
0180
0780
0600
0800
0800
3000
C000
C000
ENDCHAR
STARTCHAR 207F
ENCODING 8319
SWIDTH 420 0
DWIDTH 7 0
BBX 5 6 0 1
BITMAP
F8
F8
D8
D8
D8
D8
ENDCHAR
STARTCHAR 20A3
ENCODING 8355
SWIDTH 720 0
DWIDTH 12 0
BBX 10 10 0 -2
BITMAP
3FC0
3FC0
3000
3F80
3F80
3000
F800
F800
3000
3000
ENDCHAR
STARTCHAR 20A4
ENCODING 8356
SWIDTH 600 0
DWIDTH 10 0
BBX 9 11 0 0
BITMAP
0E00
3180
3180
F800
F800
3000
F800
F800
3000
FF80
FF80
ENDCHAR
STARTCHAR 20A7
ENCODING 8359
SWIDTH 1620 0
DWIDTH 27 0
BBX 25 8 0 0
BITMAP
FE7FFF80
FFFFFF80
C18C6000
FE0C7F80
FE0C7F80
C00C0180
C00C7F80
C00C7F80
ENDCHAR
STARTCHAR 20AC
ENCODING 8364
SWIDTH 840 0
DWIDTH 14 0
BBX 12 11 0 0
BITMAP
0FF0
3000
3000
FF00
FF00
3000
FF00
FF00
3000
0FF0
0FF0
ENDCHAR
STARTCHAR 2105
ENCODING 8453
SWIDTH 780 0
DWIDTH 13 0
BBX 12 9 0 0
BITMAP
F040
8040
8180
8180
F600
0660
1890
2090
2060
ENDCHAR
STARTCHAR 2113
ENCODING 8467
SWIDTH 480 0
DWIDTH 8 0
BBX 7 10 0 0
BITMAP
30
30
3C
3C
3C
F0
F0
30
0E
0E
ENDCHAR
STARTCHAR 2116
ENCODING 8470
SWIDTH 1020 0
DWIDTH 17 0
BBX 15 8 0 0
BITMAP
C1BE
F1B6
F1B6
D9BE
D9BE
C780
C1BE
C1BE
ENDCHAR
STARTCHAR 2122
ENCODING 8482
SWIDTH 660 0
DWIDTH 11 0
BBX 9 4 0 7
BITMAP
F480
2680
2580
2480
ENDCHAR
STARTCHAR 2126
ENCODING 8486
SWIDTH 600 0
DWIDTH 10 0
BBX 9 10 0 0
BITMAP
3E00
3E00
C180
C180
C180
C180
F780
3600
F780
F780
ENDCHAR
STARTCHAR 212E
ENCODING 8494
SWIDTH 600 0
DWIDTH 10 0
BBX 9 9 0 0
BITMAP
3F80
3F80
C000
C000
FE00
FE00
C000
FF80
3F80
ENDCHAR
STARTCHAR 215B
ENCODING 8539
SWIDTH 720 0
DWIDTH 12 0
BBX 10 10 0 -1
BITMAP
4000
C180
4780
E600
0800
0800
33C0
C3C0
C240
03C0
ENDCHAR
STARTCHAR 215C
ENCODING 8540
SWIDTH 720 0
DWIDTH 12 0
BBX 10 11 0 -1
BITMAP
F000
0000
7180
F780
0600
0800
0800
33C0
C3C0
C240
03C0
ENDCHAR
STARTCHAR 215D
ENCODING 8541
SWIDTH 720 0
DWIDTH 12 0
BBX 10 11 0 -1
BITMAP
F000
8000
F180
F600
0600
0800
0800
33C0
C3C0
C240
03C0
ENDCHAR
STARTCHAR 215E
ENCODING 8542
SWIDTH 720 0
DWIDTH 12 0
BBX 10 11 0 -1
BITMAP
F000
0000
1180
2780
2600
0800
0800
33C0
C3C0
C240
03C0
ENDCHAR
STARTCHAR 2190
ENCODING 8592
SWIDTH 780 0
DWIDTH 13 0
BBX 12 6 0 1
BITMAP
2000
2000
FFF0
FFF0
2000
2000
ENDCHAR
STARTCHAR 2191
ENCODING 8593
SWIDTH 420 0
DWIDTH 7 0
BBX 6 12 0 -2
BITMAP
30
30
FC
30
30
30
30
30
30
30
30
30
ENDCHAR
STARTCHAR 2192
ENCODING 8594
SWIDTH 780 0
DWIDTH 13 0
BBX 12 6 0 1
BITMAP
00C0
00C0
FFF0
FFF0
00C0
00C0
ENDCHAR
STARTCHAR 2193
ENCODING 8595
SWIDTH 420 0
DWIDTH 7 0
BBX 6 12 0 -2
BITMAP
30
30
30
30
30
30
30
30
FC
FC
30
30
ENDCHAR
STARTCHAR 2194
ENCODING 8596
SWIDTH 900 0
DWIDTH 15 0
BBX 13 6 0 1
BITMAP
2030
2030
FFF8
FFF8
2030
2030
ENDCHAR
STARTCHAR 2195
ENCODING 8597
SWIDTH 420 0
DWIDTH 7 0
BBX 6 13 0 -2
BITMAP
30
FC
FC
30
30
30
30
30
30
30
FC
30
30
ENDCHAR
STARTCHAR 21A8
ENCODING 8616
SWIDTH 420 0
DWIDTH 7 0
BBX 6 13 0 -2
BITMAP
30
FC
FC
30
30
30
30
30
30
30
FC
30
30
ENDCHAR
STARTCHAR 2202
ENCODING 8706
SWIDTH 480 0
DWIDTH 8 0
BBX 7 10 0 0
BITMAP
38
38
06
3E
3E
C6
C6
C6
38
38
ENDCHAR
STARTCHAR 2206
ENCODING 8710
SWIDTH 600 0
DWIDTH 10 0
BBX 9 8 0 0
BITMAP
1800
1800
2600
2600
E780
C180
FF80
FF80
ENDCHAR
STARTCHAR 220F
ENCODING 8719
SWIDTH 600 0
DWIDTH 10 0
BBX 9 9 0 0
BITMAP
FF80
FF80
C180
C180
C180
C180
C180
C180
C180
ENDCHAR
STARTCHAR 2211
ENCODING 8721
SWIDTH 600 0
DWIDTH 10 0
BBX 8 9 0 0
BITMAP
FF
FF
20
20
18
38
20
FF
FF
ENDCHAR
STARTCHAR 2212
ENCODING 8722
SWIDTH 600 0
DWIDTH 10 0
BBX 8 2 0 3
BITMAP
FF
FF
ENDCHAR
STARTCHAR 2215
ENCODING 8725
SWIDTH 600 0
DWIDTH 10 0
BBX 9 8 0 0
BITMAP
0180
0780
0600
0800
0800
3000
C000
C000
ENDCHAR
STARTCHAR 2219
ENCODING 8729
SWIDTH 180 0
DWIDTH 3 0
BBX 2 2 0 5
BITMAP
C0
C0
ENDCHAR
STARTCHAR 221A
ENCODING 8730
SWIDTH 720 0
DWIDTH 12 0
BBX 11 11 0 0
BITMAP
0060
0060
0180
0180
C600
C600
D800
D800
2000
2000
2000
ENDCHAR
STARTCHAR 221E
ENCODING 8734
SWIDTH 720 0
DWIDTH 12 0
BBX 10 5 0 5
BITMAP
2700
2700
D8C0
2700
2700
ENDCHAR
STARTCHAR 221F
ENCODING 8735
SWIDTH 600 0
DWIDTH 10 0
BBX 9 9 0 0
BITMAP
C000
C000
C000
C000
C000
C000
C000
FF80
FF80
ENDCHAR
STARTCHAR 2229
ENCODING 8745
SWIDTH 600 0
DWIDTH 10 0
BBX 9 8 0 0
BITMAP
3E00
C180
C180
C180
C180
C180
C180
C180
ENDCHAR
STARTCHAR 222B
ENCODING 8747
SWIDTH 420 0
DWIDTH 7 0
BBX 6 13 0 -2
BITMAP
3C
3C
30
30
30
30
30
30
30
30
30
F0
F0
ENDCHAR
STARTCHAR 2248
ENCODING 8776
SWIDTH 600 0
DWIDTH 10 0
BBX 7 9 1 3
BITMAP
26
26
D8
D8
00
26
26
D8
D8
ENDCHAR
STARTCHAR 2260
ENCODING 8800
SWIDTH 600 0
DWIDTH 10 0
BBX 8 9 0 0
BITMAP
06
06
FF
FF
18
FF
FF
20
20
ENDCHAR
STARTCHAR 2261
ENCODING 8801
SWIDTH 600 0
DWIDTH 10 0
BBX 8 9 0 0
BITMAP
FF
FF
00
00
FF
FF
00
FF
FF
ENDCHAR
STARTCHAR 2264
ENCODING 8804
SWIDTH 600 0
DWIDTH 10 0
BBX 8 12 0 0
BITMAP
07
07
38
C0
C0
38
38
07
07
00
FF
FF
ENDCHAR
STARTCHAR 2265
ENCODING 8805
SWIDTH 600 0
DWIDTH 10 0
BBX 9 12 0 0
BITMAP
E000
E000
1E00
0180
0180
1E00
1E00
E000
E000
0000
FF80
FF80
ENDCHAR
STARTCHAR 2302
ENCODING 8962
SWIDTH 1020 0
DWIDTH 17 0
BBX 0 0 0 0
BITMAP
ENDCHAR
STARTCHAR 2310
ENCODING 8976
SWIDTH 960 0
DWIDTH 16 0
BBX 0 0 0 0
BITMAP
ENDCHAR
STARTCHAR 2320
ENCODING 8992
SWIDTH 1020 0
DWIDTH 17 0
BBX 0 0 0 0
BITMAP
ENDCHAR
STARTCHAR 2321
ENCODING 8993
SWIDTH 1020 0
DWIDTH 17 0
BBX 0 0 0 0
BITMAP
ENDCHAR
STARTCHAR 2500
ENCODING 9472
SWIDTH 1140 0
DWIDTH 19 0
BBX 0 0 0 0
BITMAP
ENDCHAR
STARTCHAR 2502
ENCODING 9474
SWIDTH 1020 0
DWIDTH 17 0
BBX 0 0 0 0
BITMAP
ENDCHAR
STARTCHAR 250C
ENCODING 9484
SWIDTH 1140 0
DWIDTH 19 0
BBX 0 0 0 0
BITMAP
ENDCHAR
STARTCHAR 2510
ENCODING 9488
SWIDTH 1140 0
DWIDTH 19 0
BBX 0 0 0 0
BITMAP
ENDCHAR
STARTCHAR 2514
ENCODING 9492
SWIDTH 1140 0
DWIDTH 19 0
BBX 0 0 0 0
BITMAP
ENDCHAR
STARTCHAR 2518
ENCODING 9496
SWIDTH 1140 0
DWIDTH 19 0
BBX 0 0 0 0
BITMAP
ENDCHAR
STARTCHAR 251C
ENCODING 9500
SWIDTH 1140 0
DWIDTH 19 0
BBX 0 0 0 0
BITMAP
ENDCHAR
STARTCHAR 2524
ENCODING 9508
SWIDTH 1140 0
DWIDTH 19 0
BBX 0 0 0 0
BITMAP
ENDCHAR
STARTCHAR 252C
ENCODING 9516
SWIDTH 1140 0
DWIDTH 19 0
BBX 0 0 0 0
BITMAP
ENDCHAR
STARTCHAR 2534
ENCODING 9524
SWIDTH 1140 0
DWIDTH 19 0
BBX 0 0 0 0
BITMAP
ENDCHAR
STARTCHAR 253C
ENCODING 9532
SWIDTH 300 0
DWIDTH 5 0
BBX 6 18 0 -3
BITMAP
30
30
30
30
30
30
30
FC
30
30
30
30
30
30
30
30
30
30
ENDCHAR
STARTCHAR 2550
ENCODING 9552
SWIDTH 480 0
DWIDTH 8 0
BBX 8 6 0 3
BITMAP
FF
FF
00
00
FF
FF
ENDCHAR
STARTCHAR 2551
ENCODING 9553
SWIDTH 480 0
DWIDTH 8 0
BBX 5 18 2 -3
BITMAP
D8
D8
D8
D8
D8
D8
D8
D8
D8
D8
D8
D8
D8
D8
D8
D8
D8
D8
ENDCHAR
STARTCHAR 2552
ENCODING 9554
SWIDTH 480 0
DWIDTH 8 0
BBX 8 6 0 3
BITMAP
FF
FF
00
00
FF
FF
ENDCHAR
STARTCHAR 2553
ENCODING 9555
SWIDTH 480 0
DWIDTH 8 0
BBX 7 12 2 -3
BITMAP
FE
FE
D8
D8
D8
D8
D8
D8
D8
D8
D8
D8
ENDCHAR
STARTCHAR 2554
ENCODING 9556
SWIDTH 480 0
DWIDTH 8 0
BBX 7 13 2 -4
BITMAP
FE
FE
C0
C0
DE
DE
D8
D8
D8
D8
D8
D8
D8
ENDCHAR
STARTCHAR 2555
ENCODING 9557
SWIDTH 480 0
DWIDTH 8 0
BBX 9 12 0 -3
BITMAP
FF80
FF80
0180
0180
FF80
FF80
0180
0180
0180
0180
0180
0180
ENDCHAR
STARTCHAR 2556
ENCODING 9558
SWIDTH 480 0
DWIDTH 8 0
BBX 9 12 -1 -3
BITMAP
FF80
FF80
0D80
0D80
0D80
0D80
0D80
0D80
0D80
0D80
0D80
0D80
ENDCHAR
STARTCHAR 2557
ENCODING 9559
SWIDTH 480 0
DWIDTH 8 0
BBX 7 13 0 -4
BITMAP
FE
FE
06
06
F6
F6
36
36
36
36
36
36
36
ENDCHAR
STARTCHAR 2558
ENCODING 9560
SWIDTH 900 0
DWIDTH 15 0
BBX 9 12 7 3
BITMAP
C000
C000
C000
C000
C000
C000
FF80
FF80
C000
C000
FF80
FF80
ENDCHAR
STARTCHAR 2559
ENCODING 9561
SWIDTH 720 0
DWIDTH 12 0
BBX 9 9 3 7
BITMAP
D800
D800
D800
D800
D800
D800
D800
FF80
FF80
ENDCHAR
STARTCHAR 255A
ENCODING 9562
SWIDTH 720 0
DWIDTH 12 0
BBX 8 13 3 3
BITMAP
D8
D8
D8
D8
D8
D8
D8
DF
DF
C0
C0
FF
FF
ENDCHAR
STARTCHAR 255B
ENCODING 9563
SWIDTH 480 0
DWIDTH 8 0
BBX 9 12 0 3
BITMAP
0180
0180
0180
0180
0180
0180
FF80
FF80
0180
0180
FF80
FF80
ENDCHAR
STARTCHAR 255C
ENCODING 9564
SWIDTH 480 0
DWIDTH 8 0
BBX 9 9 -1 7
BITMAP
0D80
0D80
0D80
0D80
0D80
0D80
0D80
FF80
FF80
ENDCHAR
STARTCHAR 255D
ENCODING 9565
SWIDTH 420 0
DWIDTH 7 0
BBX 7 13 0 3
BITMAP
36
36
36
36
36
36
36
F6
F6
06
06
FE
FE
ENDCHAR
STARTCHAR 255E
ENCODING 9566
SWIDTH 480 0
DWIDTH 8 0
BBX 7 18 2 -3
BITMAP
C0
C0
C0
C0
C0
C0
C0
FE
C0
C0
FE
FE
C0
C0
C0
C0
C0
C0
ENDCHAR
STARTCHAR 255F
ENCODING 9567
SWIDTH 1140 0
DWIDTH 19 0
BBX 5 18 0 -3
BITMAP
D8
D8
D8
D8
D8
D8
D8
D8
D8
D8
D8
D8
D8
D8
D8
D8
D8
D8
ENDCHAR
STARTCHAR 2560
ENCODING 9568
SWIDTH 480 0
DWIDTH 8 0
BBX 7 18 2 -3
BITMAP
D8
D8
D8
D8
D8
D8
D8
DE
C0
C0
DE
DE
D8
D8
D8
D8
D8
D8
ENDCHAR
STARTCHAR 2561
ENCODING 9569
SWIDTH 480 0
DWIDTH 8 0
BBX 7 18 0 -3
BITMAP
06
06
06
06
06
06
06
FE
06
06
FE
FE
06
06
06
06
06
06
ENDCHAR
STARTCHAR 2562
ENCODING 9570
SWIDTH 480 0
DWIDTH 8 0
BBX 7 18 0 -3
BITMAP
36
36
36
36
36
36
36
F6
36
36
36
36
36
36
36
36
36
36
ENDCHAR
STARTCHAR 2563
ENCODING 9571
SWIDTH 480 0
DWIDTH 8 0
BBX 7 18 0 -3
BITMAP
36
36
36
36
36
36
36
F6
06
06
F6
F6
36
36
36
36
36
36
ENDCHAR
STARTCHAR 2564
ENCODING 9572
SWIDTH 720 0
DWIDTH 12 0
BBX 12 13 0 -4
BITMAP
FFF0
FFF0
0000
0000
FFF0
FFF0
0600
0600
0600
0600
0600
0600
0600
ENDCHAR
STARTCHAR 2565
ENCODING 9573
SWIDTH 1140 0
DWIDTH 19 0
BBX 0 0 0 0
BITMAP
ENDCHAR
STARTCHAR 2566
ENCODING 9574
SWIDTH 1140 0
DWIDTH 19 0
BBX 0 0 0 0
BITMAP
ENDCHAR
STARTCHAR 2567
ENCODING 9575
SWIDTH 1140 0
DWIDTH 19 0
BBX 0 0 0 0
BITMAP
ENDCHAR
STARTCHAR 2568
ENCODING 9576
SWIDTH 1140 0
DWIDTH 19 0
BBX 0 0 0 0
BITMAP
ENDCHAR
STARTCHAR 2569
ENCODING 9577
SWIDTH 1140 0
DWIDTH 19 0
BBX 0 0 0 0
BITMAP
ENDCHAR
STARTCHAR 256A
ENCODING 9578
SWIDTH 1140 0
DWIDTH 19 0
BBX 0 0 0 0
BITMAP
ENDCHAR
STARTCHAR 256B
ENCODING 9579
SWIDTH 1140 0
DWIDTH 19 0
BBX 0 0 0 0
BITMAP
ENDCHAR
STARTCHAR 256C
ENCODING 9580
SWIDTH 1140 0
DWIDTH 19 0
BBX 0 0 0 0
BITMAP
ENDCHAR
STARTCHAR 2580
ENCODING 9600
SWIDTH 1140 0
DWIDTH 19 0
BBX 0 0 0 0
BITMAP
ENDCHAR
STARTCHAR 2584
ENCODING 9604
SWIDTH 1140 0
DWIDTH 19 0
BBX 0 0 0 0
BITMAP
ENDCHAR
STARTCHAR 2588
ENCODING 9608
SWIDTH 1140 0
DWIDTH 19 0
BBX 0 0 0 0
BITMAP
ENDCHAR
STARTCHAR 258C
ENCODING 9612
SWIDTH 1140 0
DWIDTH 19 0
BBX 0 0 0 0
BITMAP
ENDCHAR
STARTCHAR 2590
ENCODING 9616
SWIDTH 1140 0
DWIDTH 19 0
BBX 0 0 0 0
BITMAP
ENDCHAR
STARTCHAR 2591
ENCODING 9617
SWIDTH 1140 0
DWIDTH 19 0
BBX 0 0 0 0
BITMAP
ENDCHAR
STARTCHAR 2592
ENCODING 9618
SWIDTH 1140 0
DWIDTH 19 0
BBX 0 0 0 0
BITMAP
ENDCHAR
STARTCHAR 2593
ENCODING 9619
SWIDTH 1200 0
DWIDTH 20 0
BBX 0 0 0 0
BITMAP
ENDCHAR
STARTCHAR 25A0
ENCODING 9632
SWIDTH 1020 0
DWIDTH 17 0
BBX 0 0 0 0
BITMAP
ENDCHAR
STARTCHAR 25A1
ENCODING 9633
SWIDTH 1020 0
DWIDTH 17 0
BBX 0 0 0 0
BITMAP
ENDCHAR
STARTCHAR 25AA
ENCODING 9642
SWIDTH 600 0
DWIDTH 10 0
BBX 0 0 0 0
BITMAP
ENDCHAR
STARTCHAR 25AB
ENCODING 9643
SWIDTH 600 0
DWIDTH 10 0
BBX 0 0 0 0
BITMAP
ENDCHAR
STARTCHAR 25AC
ENCODING 9644
SWIDTH 1620 0
DWIDTH 27 0
BBX 0 0 0 0
BITMAP
ENDCHAR
STARTCHAR 25B2
ENCODING 9650
SWIDTH 1620 0
DWIDTH 27 0
BBX 0 0 0 0
BITMAP
ENDCHAR
STARTCHAR 25BA
ENCODING 9658
SWIDTH 1620 0
DWIDTH 27 0
BBX 0 0 0 0
BITMAP
ENDCHAR
STARTCHAR 25BC
ENCODING 9660
SWIDTH 1620 0
DWIDTH 27 0
BBX 0 0 0 0
BITMAP
ENDCHAR
STARTCHAR 25C4
ENCODING 9668
SWIDTH 1620 0
DWIDTH 27 0
BBX 0 0 0 0
BITMAP
ENDCHAR
STARTCHAR 25CA
ENCODING 9674
SWIDTH 600 0
DWIDTH 10 0
BBX 9 12 0 0
BITMAP
1800
1800
2600
2600
2600
C180
C180
2600
2600
2600
1800
1800
ENDCHAR
STARTCHAR 25CB
ENCODING 9675
SWIDTH 1020 0
DWIDTH 17 0
BBX 0 0 0 0
BITMAP
ENDCHAR
STARTCHAR 25CF
ENCODING 9679
SWIDTH 1020 0
DWIDTH 17 0
BBX 0 0 0 0
BITMAP
ENDCHAR
STARTCHAR 25D8
ENCODING 9688
SWIDTH 1020 0
DWIDTH 17 0
BBX 0 0 0 0
BITMAP
ENDCHAR
STARTCHAR 25D9
ENCODING 9689
SWIDTH 1020 0
DWIDTH 17 0
BBX 0 0 0 0
BITMAP
ENDCHAR
STARTCHAR 25E6
ENCODING 9702
SWIDTH 600 0
DWIDTH 10 0
BBX 0 0 0 0
BITMAP
ENDCHAR
STARTCHAR 263A
ENCODING 9786
SWIDTH 1680 0
DWIDTH 28 0
BBX 0 0 0 0
BITMAP
ENDCHAR
STARTCHAR 263B
ENCODING 9787
SWIDTH 1740 0
DWIDTH 29 0
BBX 0 0 0 0
BITMAP
ENDCHAR
STARTCHAR 263C
ENCODING 9788
SWIDTH 1500 0
DWIDTH 25 0
BBX 0 0 0 0
BITMAP
ENDCHAR
STARTCHAR 2640
ENCODING 9792
SWIDTH 1200 0
DWIDTH 20 0
BBX 0 0 0 0
BITMAP
ENDCHAR
STARTCHAR 2642
ENCODING 9794
SWIDTH 1200 0
DWIDTH 20 0
BBX 0 0 0 0
BITMAP
ENDCHAR
STARTCHAR 2660
ENCODING 9824
SWIDTH 900 0
DWIDTH 15 0
BBX 0 0 0 0
BITMAP
ENDCHAR
STARTCHAR 2663
ENCODING 9827
SWIDTH 1080 0
DWIDTH 18 0
BBX 0 0 0 0
BITMAP
ENDCHAR
STARTCHAR 2665
ENCODING 9829
SWIDTH 960 0
DWIDTH 16 0
BBX 0 0 0 0
BITMAP
ENDCHAR
STARTCHAR 2666
ENCODING 9830
SWIDTH 840 0
DWIDTH 14 0
BBX 0 0 0 0
BITMAP
ENDCHAR
STARTCHAR 266A
ENCODING 9834
SWIDTH 840 0
DWIDTH 14 0
BBX 0 0 0 0
BITMAP
ENDCHAR
STARTCHAR 266B
ENCODING 9835
SWIDTH 1200 0
DWIDTH 20 0
BBX 0 0 0 0
BITMAP
ENDCHAR
STARTCHAR F001
ENCODING 61441
SWIDTH 780 0
DWIDTH 13 0
BBX 12 8 0 0
BITMAP
FF30
FF30
C000
FE30
FE30
C030
C030
C030
ENDCHAR
STARTCHAR F002
ENCODING 61442
SWIDTH 780 0
DWIDTH 13 0
BBX 12 8 0 0
BITMAP
FF30
FF30
C030
FE30
FE30
C030
C030
C030
ENDCHAR
STARTCHAR F004
ENCODING 61444
SWIDTH 540 0
DWIDTH 9 0
BBX 0 0 0 0
BITMAP
ENDCHAR
STARTCHAR F005
ENCODING 61445
SWIDTH 540 0
DWIDTH 9 0
BBX 0 0 0 0
BITMAP
ENDCHAR
STARTCHAR FB01
ENCODING 64257
SWIDTH 780 0
DWIDTH 13 0
BBX 12 8 0 0
BITMAP
FF30
FF30
C000
FE30
FE30
C030
C030
C030
ENDCHAR
STARTCHAR FB02
ENCODING 64258
SWIDTH 780 0
DWIDTH 13 0
BBX 12 8 0 0
BITMAP
FF30
FF30
C030
FE30
FE30
C030
C030
C030
ENDCHAR
ENDFONT
